# Blender v2.79 (sub 0) OBJ File: 'kabe_nagai.blend'
# www.blender.org
mtllib arch.mtl
o arch_Cube.010
v -1.000000 1.449914 1.000000
v -1.000000 3.449914 1.000000
v -1.000000 1.449914 -1.000000
v -1.000000 3.449914 -1.000000
v 1.000000 1.449914 1.000000
v 1.000000 3.449914 1.000000
v 1.000000 1.449914 -1.000000
v 1.000000 3.449914 -1.000000
v 0.000000 3.449914 -1.000000
v 0.000000 3.449914 1.000000
v -0.500000 3.449914 1.000000
v -0.500000 3.449914 -1.000000
v 0.500000 3.449914 -1.000000
v 0.500000 3.449914 1.000000
v -1.000000 2.449914 1.000000
v -1.000000 2.449914 -1.000000
v 1.000000 2.449914 -1.000000
v 1.000000 2.449914 1.000000
v -1.000000 2.949914 1.000000
v -1.000000 2.949914 -1.000000
v 1.000000 2.949914 -1.000000
v 1.000000 2.949914 1.000000
v -1.000000 1.949914 -1.000000
v 1.000000 1.949914 -1.000000
v 1.000000 1.949914 1.000000
v -1.000000 1.949914 1.000000
v -1.000000 3.199914 1.000000
v -1.000000 3.199914 -1.000000
v 1.000000 3.199914 -1.000000
v 1.000000 3.199914 1.000000
v 0.000000 3.199914 1.000000
v 0.000000 3.199914 -1.000000
v -0.500000 3.199914 -1.000000
v -0.500000 3.199914 1.000000
v 0.500000 3.199914 1.000000
v 0.500000 3.199914 -1.000000
v -1.000000 2.699914 -1.000000
v 1.000000 2.699914 -1.000000
v 1.000000 2.699914 1.000000
v -1.000000 2.699914 1.000000
v -1.000000 2.199914 1.000000
v -1.000000 2.199914 -1.000000
v 1.000000 2.199914 -1.000000
v 1.000000 2.199914 1.000000
v -1.000000 1.699914 -1.000000
v 1.000000 1.699914 -1.000000
v 1.000000 1.699914 1.000000
v -1.000000 1.699914 1.000000
v -0.750000 1.449914 -1.000000
v -0.750000 3.449914 1.000000
v -0.750000 3.449914 -1.000000
v -0.750000 1.449914 1.000000
v -0.750000 2.449914 -1.000000
v -0.750000 2.449914 1.000000
v -0.750000 2.949914 -1.000000
v -0.750000 2.949914 1.000000
v -0.750000 1.949914 1.000000
v -0.750000 1.949914 -1.000000
v -0.750000 3.199914 -1.000000
v -0.750000 3.199914 1.000000
v -0.750000 2.699914 1.000000
v -0.750000 2.699914 -1.000000
v -0.750000 2.199914 1.000000
v -0.750000 2.199914 -1.000000
v -0.750000 1.699914 -1.000000
v -0.750000 1.699914 1.000000
v -0.250000 3.449914 -1.000000
v -0.250000 3.449914 1.000000
v -0.250000 3.199914 1.000000
v -0.250000 3.199914 -1.000000
v 0.250000 3.449914 1.000000
v 0.250000 3.449914 -1.000000
v 0.250000 3.199914 -1.000000
v 0.250000 3.199914 1.000000
v 0.750000 3.449914 -1.000000
v 0.750000 1.449914 1.000000
v 0.750000 1.449914 -1.000000
v 0.750000 3.449914 1.000000
v 0.750000 2.449914 1.000000
v 0.750000 2.449914 -1.000000
v 0.750000 2.949914 1.000000
v 0.750000 2.949914 -1.000000
v 0.750000 1.949914 -1.000000
v 0.750000 1.949914 1.000000
v 0.750000 3.199914 1.000000
v 0.750000 3.199914 -1.000000
v 0.750000 2.699914 -1.000000
v 0.750000 2.699914 1.000000
v 0.750000 2.199914 -1.000000
v 0.750000 2.199914 1.000000
v 0.750000 1.699914 1.000000
v 0.750000 1.699914 -1.000000
vt 0.875000 0.000000
vt 1.000000 0.000000
vt 1.000000 1.000000
vt 0.875000 1.000000
vt 0.875000 0.875000
vt 1.000000 0.875000
vt 1.000000 1.000000
vt 0.875000 1.000000
vt 0.875000 0.000000
vt 1.000000 0.000000
vt 1.000000 1.000000
vt 0.875000 1.000000
vt 0.875000 0.875000
vt 1.000000 0.875000
vt 1.000000 1.000000
vt 0.875000 1.000000
vt 0.875000 0.000000
vt 1.000000 0.000000
vt 1.000000 1.000000
vt 0.875000 1.000000
vt 0.875000 0.000000
vt 1.000000 0.000000
vt 0.875000 1.000000
vt 0.375000 0.000000
vt 0.500000 0.000000
vt 0.500000 1.000000
vt 0.375000 1.000000
vt 0.875000 0.375000
vt 1.000000 0.375000
vt 1.000000 0.500000
vt 0.875000 0.500000
vt 0.875000 0.375000
vt 1.000000 0.375000
vt 1.000000 0.500000
vt 0.875000 0.500000
vt 0.875000 0.125000
vt 1.000000 0.125000
vt 1.000000 0.250000
vt 0.875000 0.250000
vt 0.625000 0.000000
vt 0.750000 0.000000
vt 0.750000 1.000000
vt 0.625000 1.000000
vt 0.875000 0.625000
vt 1.000000 0.625000
vt 1.000000 0.750000
vt 0.875000 0.750000
vt 0.875000 0.125000
vt 1.000000 0.125000
vt 1.000000 0.250000
vt 0.875000 0.250000
vt 0.125000 0.000000
vt 0.250000 0.000000
vt 0.250000 1.000000
vt 0.125000 1.000000
vt 0.875000 0.625000
vt 1.000000 0.625000
vt 1.000000 0.750000
vt 0.875000 0.750000
vt 0.375000 0.875000
vt 0.500000 0.875000
vt 0.500000 1.000000
vt 0.375000 1.000000
vt 0.375000 0.000000
vt 0.500000 0.000000
vt 0.500000 1.000000
vt 0.375000 1.000000
vt 0.375000 0.875000
vt 0.500000 0.875000
vt 0.500000 1.000000
vt 0.375000 1.000000
vt 0.375000 0.000000
vt 0.500000 0.000000
vt 0.500000 1.000000
vt 0.375000 1.000000
vt 0.625000 0.875000
vt 0.750000 0.875000
vt 0.750000 1.000000
vt 0.625000 1.000000
vt 0.625000 0.000000
vt 0.750000 0.000000
vt 0.750000 1.000000
vt 0.625000 1.000000
vt 0.625000 0.875000
vt 0.750000 0.875000
vt 0.750000 1.000000
vt 0.625000 1.000000
vt 0.625000 0.000000
vt 0.750000 0.000000
vt 0.750000 1.000000
vt 0.625000 1.000000
vt 0.125000 0.000000
vt 0.250000 0.000000
vt 0.250000 1.000000
vt 0.125000 1.000000
vt 0.125000 0.875000
vt 0.250000 0.875000
vt 0.250000 1.000000
vt 0.125000 1.000000
vt 0.125000 0.000000
vt 0.250000 0.000000
vt 0.250000 1.000000
vt 0.125000 1.000000
vt 0.125000 0.875000
vt 0.250000 0.875000
vt 0.250000 1.000000
vt 0.125000 1.000000
vt 0.000000 0.875000
vt 0.000000 1.000000
vt 0.000000 0.000000
vt 0.000000 1.000000
vt 0.000000 0.875000
vt 0.000000 1.000000
vt 0.000000 0.000000
vt 0.000000 1.000000
vt 0.000000 0.000000
vt 0.125000 0.000000
vt 0.125000 0.125000
vt 0.000000 0.125000
vt 0.250000 0.000000
vt 0.375000 0.000000
vt 0.375000 0.125000
vt 0.250000 0.125000
vt 0.500000 0.000000
vt 0.625000 0.000000
vt 0.625000 0.125000
vt 0.500000 0.125000
vt 0.750000 0.000000
vt 0.875000 0.000000
vt 0.750000 0.125000
vt 0.125000 0.000000
vt 0.125000 1.000000
vt 0.000000 0.000000
vt 0.125000 0.000000
vt 0.125000 0.125000
vt 0.000000 0.125000
vt 0.250000 0.000000
vt 0.375000 0.000000
vt 0.375000 0.125000
vt 0.250000 0.125000
vt 0.500000 0.000000
vt 0.625000 0.000000
vt 0.625000 0.125000
vt 0.500000 0.125000
vt 0.750000 0.000000
vt 0.875000 0.000000
vt 0.750000 0.125000
vt 0.000000 0.750001
vt 1.000000 0.750000
vt 1.000000 0.875000
vt 0.000000 0.875001
vt 0.000000 0.000000
vt 0.000000 1.000000
vt 1.000000 0.000000
vt 0.000000 0.625001
vt 1.000000 0.625000
vt 1.000000 0.500000
vt 0.000000 0.500001
vt 0.000000 0.375000
vt 1.000000 0.375000
vt 1.000000 0.250000
vt 0.000000 0.250000
vt 1.000000 0.125000
vt 0.000000 0.125000
vt 0.000000 0.000000
vt 1.000000 0.000000
vt 0.750001 1.000000
vt 0.750000 0.000000
vt 0.875000 0.000000
vt 0.875001 1.000000
vt 0.625000 1.000000
vt 0.625000 0.000000
vt 0.500000 0.000000
vt 0.500000 1.000000
vt 0.375000 1.000000
vt 0.375000 0.000000
vt 0.250000 0.000000
vt 0.250000 1.000000
vt 0.125000 0.000000
vt 0.125000 1.000000
vt 0.000000 1.000000
vt 0.000000 0.000000
vt 0.000000 0.750001
vt 0.000000 0.625000
vt 1.000000 0.625000
vt 1.000000 0.750001
vt 1.000000 0.500000
vt 0.000000 0.500000
vt 0.000000 0.375000
vt 1.000000 0.375000
vt 1.000000 0.250000
vt 0.000000 0.250000
vt 0.000000 0.125000
vt 1.000000 0.125000
vt 1.000000 0.000000
vt 0.000000 0.000000
vn -1.0000 0.0000 0.0000
vn 0.0000 0.0000 -1.0000
vn 1.0000 0.0000 0.0000
vn 0.0000 0.0000 1.0000
vn 0.0000 -1.0000 0.0000
vn 0.0000 1.0000 0.0000
usemtl stage.004
s off
f 27/1/1 2/2/1 4/3/1 28/4/1
f 86/5/2 75/6/2 8/7/2 29/8/2
f 29/9/3 8/10/3 6/11/3 30/12/3
f 60/13/4 50/14/4 2/15/4 27/16/4
f 77/17/5 7/18/5 5/19/5 76/20/5
f 51/21/6 4/22/6 2/15/6 50/23/6
f 72/24/6 9/25/6 10/26/6 71/27/6
f 74/28/4 71/29/4 10/30/4 31/31/4
f 70/32/2 67/33/2 9/34/2 32/35/2
f 59/36/2 51/37/2 12/38/2 33/39/2
f 67/40/6 12/41/6 11/42/6 68/43/6
f 69/44/4 68/45/4 11/46/4 34/47/4
f 85/48/4 78/49/4 14/50/4 35/51/4
f 75/52/6 13/53/6 14/54/6 78/55/6
f 73/56/2 72/57/2 13/58/2 36/59/2
f 63/60/4 54/61/4 15/62/4 41/63/4
f 43/64/3 17/65/3 18/66/3 44/67/3
f 89/68/2 80/69/2 17/70/2 43/71/2
f 41/72/1 15/73/1 16/74/1 42/75/1
f 61/76/4 56/77/4 19/78/4 40/79/4
f 38/80/3 21/81/3 22/82/3 39/83/3
f 87/84/2 82/85/2 21/86/2 38/87/2
f 40/88/1 19/89/1 20/90/1 37/91/1
f 48/92/1 26/93/1 23/94/1 45/95/1
f 92/96/2 83/97/2 24/98/2 46/99/2
f 46/100/3 24/101/3 25/102/3 47/103/3
f 66/104/4 57/105/4 26/106/4 48/107/4
f 56/77/4 60/13/4 27/16/4 19/78/4
f 21/81/3 29/9/3 30/12/3 22/82/3
f 82/85/2 86/5/2 29/8/2 21/86/2
f 19/89/1 27/1/1 28/4/1 20/90/1
f 15/73/1 40/88/1 37/91/1 16/74/1
f 80/69/2 87/84/2 38/87/2 17/70/2
f 17/65/3 38/80/3 39/83/3 18/66/3
f 54/61/4 61/76/4 40/79/4 15/62/4
f 26/93/1 41/72/1 42/75/1 23/94/1
f 83/97/2 89/68/2 43/71/2 24/98/2
f 24/101/3 43/64/3 44/67/3 25/102/3
f 57/105/4 63/60/4 41/63/4 26/106/4
f 52/108/4 66/104/4 48/107/4 1/109/4
f 7/110/3 46/100/3 47/103/3 5/111/3
f 77/112/2 92/96/2 46/99/2 7/113/2
f 1/114/1 48/92/1 45/95/1 3/115/1
f 3/116/2 45/117/2 65/118/2 49/119/2
f 23/120/2 42/121/2 64/122/2 58/123/2
f 16/124/2 37/125/2 62/126/2 53/127/2
f 20/128/2 28/129/2 59/36/2 55/130/2
f 45/117/2 23/120/2 58/123/2 65/118/2
f 37/125/2 20/128/2 55/130/2 62/126/2
f 42/121/2 16/124/2 53/127/2 64/122/2
f 3/116/5 49/131/5 52/132/5 1/109/5
f 28/129/2 4/22/2 51/37/2 59/36/2
f 12/41/6 51/21/6 50/23/6 11/42/6
f 34/47/4 11/46/4 50/14/4 60/13/4
f 31/31/4 10/30/4 68/45/4 69/44/4
f 9/25/6 67/40/6 68/43/6 10/26/6
f 33/39/2 12/38/2 67/33/2 70/32/2
f 32/35/2 9/34/2 72/57/2 73/56/2
f 35/51/4 14/50/4 71/29/4 74/28/4
f 13/53/6 72/24/6 71/27/6 14/54/6
f 5/133/4 47/134/4 91/135/4 76/136/4
f 25/137/4 44/138/4 90/139/4 84/140/4
f 18/141/4 39/142/4 88/143/4 79/144/4
f 22/145/4 30/146/4 85/48/4 81/147/4
f 47/134/4 25/137/4 84/140/4 91/135/4
f 39/142/4 22/145/4 81/147/4 88/143/4
f 56/148/3 55/149/3 59/150/3 60/151/3
f 44/138/4 18/141/4 79/144/4 90/139/4
f 8/152/6 75/52/6 78/55/6 6/153/6
f 30/146/4 6/154/4 78/49/4 85/48/4
f 36/59/2 13/58/2 75/6/2 86/5/2
f 61/155/3 62/156/3 55/149/3 56/148/3
f 53/157/3 62/156/3 61/155/3 54/158/3
f 63/159/3 64/160/3 53/157/3 54/158/3
f 58/161/3 64/160/3 63/159/3 57/162/3
f 65/163/3 58/161/3 57/162/3 66/164/3
f 52/165/3 49/166/3 65/163/3 66/164/3
f 82/167/1 81/168/1 85/169/1 86/170/1
f 87/171/1 88/172/1 81/168/1 82/167/1
f 79/173/1 88/172/1 87/171/1 80/174/1
f 89/175/1 90/176/1 79/173/1 80/174/1
f 84/177/1 90/176/1 89/175/1 83/178/1
f 91/179/1 84/177/1 83/178/1 92/180/1
f 77/181/1 76/182/1 91/179/1 92/180/1
f 85/183/5 35/184/5 36/185/5 86/186/5
f 73/187/5 36/185/5 35/184/5 74/188/5
f 74/188/5 31/189/5 32/190/5 73/187/5
f 70/191/5 32/190/5 31/189/5 69/192/5
f 69/192/5 34/193/5 33/194/5 70/191/5
f 59/195/5 33/194/5 34/193/5 60/196/5
