# Blender v2.79 (sub 0) OBJ File: 'bridge.blend'
# www.blender.org
mtllib bridge.mtl
o Cube
v 0.506603 -0.408392 0.307336
v 0.506602 0.213368 0.307336
v 0.687581 -0.408392 0.307336
v 0.687581 -0.036923 0.594917
v 0.687581 -0.299452 1.363053
v 0.687581 -0.408392 1.363053
v 0.687581 0.091913 0.307336
v 0.687581 -0.299452 1.076124
v 0.687581 0.213368 0.307336
v 0.506602 0.091913 0.307336
v 0.506603 -0.408392 0.582370
v 0.506602 0.091913 0.594917
v 0.506602 -0.036923 0.594917
v 0.506603 -0.408392 0.832934
v 0.506602 -0.036923 0.832935
v 0.506602 -0.171452 0.832935
v 0.506603 -0.408392 1.076124
v 0.506602 -0.171452 1.076124
v 0.506602 -0.299452 1.076124
v 0.506603 -0.408392 1.363053
v 0.506602 -0.299452 1.363053
v 0.687581 -0.171452 1.076124
v 0.687581 -0.408392 1.076124
v 0.687581 -0.171452 0.832935
v 0.687581 -0.036923 0.832935
v 0.687581 -0.408392 0.832934
v 0.687581 0.091913 0.594917
v 0.687581 -0.408392 0.582370
v 0.506602 0.336980 0.832935
v 0.687581 0.336980 0.832935
v 0.687581 0.528662 0.307336
v 0.506602 0.528662 0.307336
v 0.687581 0.503283 0.594917
v 0.687581 0.503283 0.307336
v 0.506602 0.503283 0.594917
v 0.506602 0.432923 0.594917
v 0.687581 0.432923 0.594917
v 0.506602 0.503283 0.307336
v 0.506602 0.432923 0.832935
v 0.506602 0.336980 1.076124
v 0.506602 0.222618 1.363053
v 0.506602 0.222618 1.076124
v 0.687581 0.222618 1.076124
v 0.687581 0.222618 1.363053
v 0.687581 0.432923 0.832935
v 0.687581 0.336980 1.076124
v -0.506603 -0.408392 0.307336
v 0.000000 -0.408392 0.307335
v -0.506602 0.213368 0.307336
v 0.000000 0.213368 0.307335
v -0.687581 -0.408392 0.307336
v -0.687581 -0.036923 0.594917
v -0.687581 -0.299452 1.363053
v -0.687581 -0.408392 1.363053
v -0.687581 0.091913 0.307336
v -0.687581 -0.299452 1.076124
v -0.687581 0.213368 0.307336
v 0.000000 0.091913 0.307335
v -0.506602 0.091913 0.307336
v -0.506603 -0.408392 0.582370
v 0.000000 -0.408392 0.582370
v 0.000000 0.091913 0.594917
v -0.506602 0.091913 0.594917
v 0.000000 -0.036923 0.594917
v -0.506602 -0.036923 0.594917
v -0.506603 -0.408392 0.832934
v 0.000000 -0.408392 0.832934
v 0.000000 -0.036923 0.832934
v -0.506602 -0.036923 0.832935
v 0.000000 -0.171452 0.832934
v -0.506602 -0.171452 0.832935
v -0.506603 -0.408392 1.076124
v 0.000000 -0.408392 1.076124
v 0.000000 -0.171452 1.076124
v -0.506602 -0.171452 1.076124
v 0.000000 -0.299452 1.076124
v -0.506602 -0.299452 1.076124
v -0.506603 -0.408392 1.363053
v 0.000000 -0.408392 1.363053
v 0.000000 -0.299452 1.363053
v -0.506602 -0.299452 1.363053
v -0.687581 -0.171452 1.076124
v -0.687581 -0.408392 1.076124
v -0.687581 -0.171452 0.832935
v -0.687581 -0.036923 0.832935
v -0.687581 -0.408392 0.832934
v -0.687581 0.091913 0.594917
v -0.687581 -0.408392 0.582370
v -0.506602 0.336980 0.832935
v -0.687581 0.336980 0.832935
v -0.687581 0.528662 0.307336
v -0.506602 0.528662 0.307336
v -0.687581 0.503283 0.594917
v -0.687581 0.503283 0.307336
v -0.506602 0.503283 0.594917
v -0.506602 0.432923 0.594917
v -0.687581 0.432923 0.594917
v -0.506602 0.503283 0.307336
v -0.506602 0.432923 0.832935
v -0.506602 0.336980 1.076124
v -0.506602 0.222618 1.363053
v -0.506602 0.222618 1.076124
v -0.687581 0.222618 1.076124
v -0.687581 0.222618 1.363053
v -0.687581 0.432923 0.832935
v -0.687581 0.336980 1.076124
v 0.506603 -0.408392 0.000000
v 0.506603 -0.408392 -0.307336
v 0.506603 0.213368 0.000000
v 0.506602 0.213368 -0.307336
v 0.687581 -0.408392 -0.307336
v 0.687581 -0.408392 0.000000
v 0.687581 -0.036923 -0.594917
v 0.687581 -0.299452 -1.363053
v 0.687581 -0.408392 -1.363053
v 0.687581 0.091913 -0.307336
v 0.687581 -0.299452 -1.076124
v 0.687581 0.213368 -0.307336
v 0.506602 0.091913 -0.307336
v 0.506603 -0.408392 -0.582370
v 0.506602 0.091913 -0.594917
v 0.506602 -0.036923 -0.594917
v 0.506603 -0.408392 -0.832934
v 0.506602 -0.036923 -0.832935
v 0.506602 -0.171452 -0.832935
v 0.506603 -0.408392 -1.076124
v 0.506602 -0.171452 -1.076124
v 0.506602 -0.299452 -1.076124
v 0.506603 -0.408392 -1.363053
v 0.506602 -0.299452 -1.363053
v 0.687581 0.213368 0.000000
v 0.687581 -0.171452 -1.076124
v 0.687581 -0.408392 -1.076124
v 0.687581 -0.171452 -0.832935
v 0.687581 -0.036923 -0.832935
v 0.687581 -0.408392 -0.832934
v 0.687581 0.091913 -0.594917
v 0.687581 -0.408392 -0.582370
v 0.506602 0.336980 -0.832935
v 0.687581 0.336980 -0.832935
v 0.687581 0.528662 0.000000
v 0.687581 0.528662 -0.307336
v 0.506603 0.528662 0.000000
v 0.506602 0.528662 -0.307336
v 0.687581 0.503283 -0.594917
v 0.687581 0.503283 -0.307336
v 0.506602 0.503283 -0.594917
v 0.506602 0.432923 -0.594917
v 0.687581 0.432923 -0.594917
v 0.506602 0.503283 -0.307336
v 0.506602 0.432923 -0.832935
v 0.506602 0.336980 -1.076124
v 0.506602 0.222618 -1.363053
v 0.506602 0.222618 -1.076124
v 0.687581 0.222618 -1.076124
v 0.687581 0.222618 -1.363053
v 0.687581 0.432923 -0.832935
v 0.687581 0.336980 -1.076124
v -0.506603 -0.408392 0.000000
v -0.506603 -0.408392 -0.307336
v 0.000000 -0.408392 -0.307335
v 0.000000 -0.408392 0.000000
v -0.506603 0.213368 0.000000
v -0.506602 0.213368 -0.307336
v 0.000000 0.213368 -0.307335
v 0.000000 0.213368 0.000000
v -0.687581 -0.408392 -0.307336
v -0.687581 -0.408392 0.000000
v -0.687581 -0.036923 -0.594917
v -0.687581 -0.299452 -1.363053
v -0.687581 -0.408392 -1.363053
v -0.687581 0.091913 -0.307336
v -0.687581 -0.299452 -1.076124
v -0.687581 0.213368 -0.307336
v 0.000000 0.091913 -0.307335
v -0.506602 0.091913 -0.307336
v -0.506603 -0.408392 -0.582370
v 0.000000 -0.408392 -0.582370
v 0.000000 0.091913 -0.594917
v -0.506602 0.091913 -0.594917
v 0.000000 -0.036923 -0.594917
v -0.506602 -0.036923 -0.594917
v -0.506603 -0.408392 -0.832934
v 0.000000 -0.408392 -0.832934
v 0.000000 -0.036923 -0.832934
v -0.506602 -0.036923 -0.832935
v 0.000000 -0.171452 -0.832934
v -0.506602 -0.171452 -0.832935
v -0.506603 -0.408392 -1.076124
v 0.000000 -0.408392 -1.076124
v 0.000000 -0.171452 -1.076124
v -0.506602 -0.171452 -1.076124
v 0.000000 -0.299452 -1.076124
v -0.506602 -0.299452 -1.076124
v -0.506603 -0.408392 -1.363053
v 0.000000 -0.408392 -1.363053
v 0.000000 -0.299452 -1.363053
v -0.506602 -0.299452 -1.363053
v -0.687581 0.213368 0.000000
v -0.687581 -0.171452 -1.076124
v -0.687581 -0.408392 -1.076124
v -0.687581 -0.171452 -0.832935
v -0.687581 -0.036923 -0.832935
v -0.687581 -0.408392 -0.832934
v -0.687581 0.091913 -0.594917
v -0.687581 -0.408392 -0.582370
v -0.506602 0.336980 -0.832935
v -0.687581 0.336980 -0.832935
v -0.687581 0.528662 0.000000
v -0.687581 0.528662 -0.307336
v -0.506603 0.528662 0.000000
v -0.506602 0.528662 -0.307336
v -0.687581 0.503283 -0.594917
v -0.687581 0.503283 -0.307336
v -0.506602 0.503283 -0.594917
v -0.506602 0.432923 -0.594917
v -0.687581 0.432923 -0.594917
v -0.506602 0.503283 -0.307336
v -0.506602 0.432923 -0.832935
v -0.506602 0.336980 -1.076124
v -0.506602 0.222618 -1.363053
v -0.506602 0.222618 -1.076124
v -0.687581 0.222618 -1.076124
v -0.687581 0.222618 -1.363053
v -0.687581 0.432923 -0.832935
v -0.687581 0.336980 -1.076124
vn 0.0000 -1.0000 0.0000
vn 0.0000 1.0000 0.0000
vn 1.0000 0.0000 0.0000
vn 0.0000 0.0000 1.0000
vn -1.0000 0.0000 0.0000
vn 0.0000 0.0000 -1.0000
usemtl Material
s off
f 17//1 14//1 26//1 23//1
f 109//2 166//2 50//2 2//2
f 27//3 7//3 34//3 33//3
f 12//4 13//4 4//4 27//4
f 18//4 19//4 8//4 22//4
f 21//4 20//4 6//4 5//4
f 2//4 50//4 58//4 10//4
f 10//2 58//2 62//2 12//2
f 48//1 1//1 11//1 61//1
f 12//4 62//4 64//4 13//4
f 13//2 64//2 68//2 15//2
f 61//1 11//1 14//1 67//1
f 15//4 68//4 70//4 16//4
f 16//2 70//2 74//2 18//2
f 67//1 14//1 17//1 73//1
f 18//4 74//4 76//4 19//4
f 19//2 76//2 80//2 21//2
f 73//1 17//1 20//1 79//1
f 79//4 20//4 21//4 80//4
f 11//1 1//1 3//1 28//1
f 18//4 22//4 46//4 40//4
f 107//2 1//2 3//2 112//2
f 15//4 16//4 24//4 25//4
f 20//1 17//1 23//1 6//1
f 5//3 8//3 43//3 44//3
f 19//5 21//5 41//5 42//5
f 2//4 10//4 7//4 9//4
f 14//1 11//1 28//1 26//1
f 7//6 10//6 38//6 34//6
f 131//3 9//3 7//3 3//3 112//3
f 27//3 4//3 28//3 3//3 7//3
f 24//3 26//3 28//3 4//3 25//3
f 8//3 23//3 26//3 24//3 22//3
f 6//3 23//3 8//3 5//3
f 42//2 41//2 44//2 43//2
f 38//2 35//2 33//2 34//2
f 36//2 39//2 45//2 37//2
f 143//2 32//2 31//2 141//2
f 29//2 40//2 46//2 30//2
f 21//4 5//4 44//4 41//4
f 24//6 16//6 29//6 30//6
f 12//4 27//4 33//4 35//4
f 22//3 24//3 30//3 46//3
f 10//5 12//5 35//5 38//5
f 2//4 9//4 31//4 32//4
f 4//6 13//6 36//6 37//6
f 15//4 25//4 45//4 39//4
f 9//3 131//3 141//3 31//3
f 13//5 15//5 39//5 36//5
f 109//5 2//5 32//5 143//5
f 25//3 4//3 37//3 45//3
f 16//5 18//5 40//5 29//5
f 8//6 19//6 42//6 43//6
f 72//1 83//1 86//1 66//1
f 163//2 49//2 50//2 166//2
f 87//5 93//5 94//5 55//5
f 63//4 87//4 52//4 65//4
f 75//4 82//4 56//4 77//4
f 81//4 53//4 54//4 78//4
f 49//4 59//4 58//4 50//4
f 59//2 63//2 62//2 58//2
f 48//1 61//1 60//1 47//1
f 63//4 65//4 64//4 62//4
f 65//2 69//2 68//2 64//2
f 61//1 67//1 66//1 60//1
f 69//4 71//4 70//4 68//4
f 71//2 75//2 74//2 70//2
f 67//1 73//1 72//1 66//1
f 75//4 77//4 76//4 74//4
f 77//2 81//2 80//2 76//2
f 73//1 79//1 78//1 72//1
f 79//4 80//4 81//4 78//4
f 60//1 88//1 51//1 47//1
f 75//4 100//4 106//4 82//4
f 159//2 168//2 51//2 47//2
f 69//4 85//4 84//4 71//4
f 78//1 54//1 83//1 72//1
f 53//5 104//5 103//5 56//5
f 77//3 102//3 101//3 81//3
f 49//4 57//4 55//4 59//4
f 66//1 86//1 88//1 60//1
f 55//6 94//6 98//6 59//6
f 199//5 168//5 51//5 55//5 57//5
f 87//5 55//5 51//5 88//5 52//5
f 84//5 85//5 52//5 88//5 86//5
f 56//5 82//5 84//5 86//5 83//5
f 54//5 53//5 56//5 83//5
f 102//2 103//2 104//2 101//2
f 98//2 94//2 93//2 95//2
f 96//2 97//2 105//2 99//2
f 211//2 209//2 91//2 92//2
f 89//2 90//2 106//2 100//2
f 81//4 101//4 104//4 53//4
f 84//6 90//6 89//6 71//6
f 63//4 95//4 93//4 87//4
f 82//5 106//5 90//5 84//5
f 59//3 98//3 95//3 63//3
f 49//4 92//4 91//4 57//4
f 52//6 97//6 96//6 65//6
f 69//4 99//4 105//4 85//4
f 57//5 91//5 209//5 199//5
f 65//3 96//3 99//3 69//3
f 163//3 211//3 92//3 49//3
f 85//5 105//5 97//5 52//5
f 71//3 89//3 100//3 75//3
f 56//6 103//6 102//6 77//6
f 126//1 133//1 136//1 123//1
f 109//2 110//2 165//2 166//2
f 137//3 145//3 146//3 116//3
f 121//6 137//6 113//6 122//6
f 127//6 132//6 117//6 128//6
f 130//6 114//6 115//6 129//6
f 110//6 119//6 175//6 165//6
f 119//2 121//2 179//2 175//2
f 161//1 178//1 120//1 108//1
f 121//6 122//6 181//6 179//6
f 122//2 124//2 185//2 181//2
f 178//1 184//1 123//1 120//1
f 124//6 125//6 187//6 185//6
f 125//2 127//2 191//2 187//2
f 184//1 190//1 126//1 123//1
f 127//6 128//6 193//6 191//6
f 128//2 130//2 197//2 193//2
f 190//1 196//1 129//1 126//1
f 196//6 197//6 130//6 129//6
f 120//1 138//1 111//1 108//1
f 127//6 152//6 158//6 132//6
f 107//2 112//2 111//2 108//2
f 124//6 135//6 134//6 125//6
f 129//1 115//1 133//1 126//1
f 107//4 112//4 131//4 109//4
f 114//3 156//3 155//3 117//3
f 128//5 154//5 153//5 130//5
f 110//6 118//6 116//6 119//6
f 123//1 136//1 138//1 120//1
f 116//4 146//4 150//4 119//4
f 131//3 112//3 111//3 116//3 118//3
f 137//3 116//3 111//3 138//3 113//3
f 134//3 135//3 113//3 138//3 136//3
f 117//3 132//3 134//3 136//3 133//3
f 115//3 114//3 117//3 133//3
f 154//2 155//2 156//2 153//2
f 150//2 146//2 145//2 147//2
f 148//2 149//2 157//2 151//2
f 143//2 141//2 142//2 144//2
f 139//2 140//2 158//2 152//2
f 130//6 153//6 156//6 114//6
f 134//4 140//4 139//4 125//4
f 121//6 147//6 145//6 137//6
f 132//3 158//3 140//3 134//3
f 119//5 150//5 147//5 121//5
f 110//6 144//6 142//6 118//6
f 113//4 149//4 148//4 122//4
f 124//6 151//6 157//6 135//6
f 118//3 142//3 141//3 131//3
f 122//5 148//5 151//5 124//5
f 131//4 141//4 143//4 109//4
f 109//5 143//5 144//5 110//5
f 135//3 157//3 149//3 113//3
f 125//5 139//5 152//5 127//5
f 117//4 155//4 154//4 128//4
f 189//1 183//1 204//1 201//1
f 163//2 166//2 165//2 164//2
f 205//5 172//5 214//5 213//5
f 180//6 182//6 169//6 205//6
f 192//6 194//6 173//6 200//6
f 198//6 195//6 171//6 170//6
f 164//6 165//6 175//6 176//6
f 176//2 175//2 179//2 180//2
f 161//1 160//1 177//1 178//1
f 180//6 179//6 181//6 182//6
f 182//2 181//2 185//2 186//2
f 178//1 177//1 183//1 184//1
f 186//6 185//6 187//6 188//6
f 188//2 187//2 191//2 192//2
f 184//1 183//1 189//1 190//1
f 192//6 191//6 193//6 194//6
f 194//2 193//2 197//2 198//2
f 190//1 189//1 195//1 196//1
f 196//6 195//6 198//6 197//6
f 177//1 160//1 167//1 206//1
f 192//6 200//6 226//6 220//6
f 159//2 160//2 167//2 168//2
f 186//6 188//6 202//6 203//6
f 195//1 189//1 201//1 171//1
f 159//4 163//4 199//4 168//4
f 170//5 173//5 223//5 224//5
f 194//3 198//3 221//3 222//3
f 164//6 176//6 172//6 174//6
f 183//1 177//1 206//1 204//1
f 172//4 176//4 218//4 214//4
f 199//5 174//5 172//5 167//5 168//5
f 205//5 169//5 206//5 167//5 172//5
f 202//5 204//5 206//5 169//5 203//5
f 173//5 201//5 204//5 202//5 200//5
f 171//5 201//5 173//5 170//5
f 222//2 221//2 224//2 223//2
f 218//2 215//2 213//2 214//2
f 216//2 219//2 225//2 217//2
f 211//2 212//2 210//2 209//2
f 207//2 220//2 226//2 208//2
f 198//6 170//6 224//6 221//6
f 202//4 188//4 207//4 208//4
f 180//6 205//6 213//6 215//6
f 200//5 202//5 208//5 226//5
f 176//3 180//3 215//3 218//3
f 164//6 174//6 210//6 212//6
f 169//4 182//4 216//4 217//4
f 186//6 203//6 225//6 219//6
f 174//5 199//5 209//5 210//5
f 182//3 186//3 219//3 216//3
f 199//4 163//4 211//4 209//4
f 163//3 164//3 212//3 211//3
f 203//5 169//5 217//5 225//5
f 188//3 192//3 220//3 207//3
f 173//4 194//4 222//4 223//4
l 107 162
l 48 162
l 159 162
l 161 162
