# Blender v2.79 (sub 0) OBJ File: 'tower_01.blend'
# www.blender.org
mtllib castle_01.mtl
o Cube
v -0.463114 -1.000000 1.000000
v -0.463114 1.000000 1.000000
v -0.463114 -1.000000 -1.000000
v -0.463114 1.000000 -1.000000
v 0.536886 -1.000000 -1.000000
v 0.536886 1.000000 -1.000000
v 0.536886 -1.000000 1.000000
v 0.536886 1.000000 1.000000
v -0.463114 -1.000000 0.000000
v -0.463114 1.000000 0.000000
v 0.536886 1.000000 0.000000
v 0.536886 -1.000000 0.000000
v -0.463114 -1.000000 0.500000
v 0.536886 1.000000 0.500000
v 0.536886 -1.000000 0.500000
v -0.463114 1.000000 0.500000
v -0.463114 1.000000 -0.500000
v -0.463114 -1.000000 -0.500000
v 0.536886 1.000000 -0.500000
v 0.536886 -1.000000 -0.500000
v -0.463114 -1.000000 0.750000
v 0.536886 1.000000 0.750000
v 0.536886 -1.000000 0.750000
v -0.463114 1.000000 0.750000
v -0.463114 1.000000 0.250000
v -0.463114 -1.000000 0.250000
v 0.536886 1.000000 0.250000
v 0.536886 -1.000000 0.250000
v -0.463114 -1.000000 -0.250000
v 0.536886 1.000000 -0.250000
v 0.536886 -1.000000 -0.250000
v -0.463114 1.000000 -0.250000
v -0.463114 1.000000 -0.750000
v -0.463114 -1.000000 -0.750000
v 0.536886 1.000000 -0.750000
v 0.536886 -1.000000 -0.750000
v -0.463114 1.278988 -0.750000
v -0.463114 1.278988 -1.000000
v 0.536886 1.278988 1.000000
v -0.463114 1.278988 1.000000
v 0.536886 1.278988 -1.000000
v 0.536886 1.278988 0.750000
v -0.463114 1.278988 0.250000
v -0.463114 1.278988 0.000000
v 0.536886 1.278988 -0.250000
v 0.536886 1.278988 0.000000
v -0.463114 1.278988 0.750000
v -0.463114 1.278988 0.500000
v 0.536886 1.278988 0.500000
v 0.536886 1.278988 -0.750000
v 0.536886 1.278988 -0.500000
v -0.463114 1.278988 -0.500000
v 0.536886 1.278988 0.250000
v -0.463114 1.278988 -0.250000
vt 0.000248 0.349555
vt 0.399455 0.349554
vt 0.399455 0.399455
vt 0.000248 0.399456
vt 0.933677 0.399951
vt 0.933677 0.799158
vt 0.734073 0.799158
vt 0.734073 0.399951
vt 0.618398 0.656232
vt 0.668299 0.656232
vt 0.668299 0.711919
vt 0.618398 0.711919
vt 0.050149 0.600050
vt 0.050148 0.799654
vt 0.000248 0.799654
vt 0.000248 0.600050
vt 0.000248 0.800149
vt 0.399455 0.800149
vt 0.399455 0.999753
vt 0.000248 0.999753
vt 0.749257 0.399455
vt 0.749257 0.000248
vt 0.799158 0.000248
vt 0.799158 0.399455
vt 0.549653 0.399455
vt 0.549653 0.000248
vt 0.599554 0.000248
vt 0.599554 0.399455
vt 0.249752 0.600050
vt 0.249752 0.799654
vt 0.199851 0.799654
vt 0.199851 0.600050
vt 0.472501 0.399951
vt 0.472501 0.599555
vt 0.416814 0.599555
vt 0.416814 0.399951
vt 0.000248 0.149951
vt 0.399455 0.149950
vt 0.399455 0.199851
vt 0.000248 0.199852
vt 0.000248 0.050149
vt 0.399455 0.050148
vt 0.399455 0.100049
vt 0.000248 0.100050
vt 0.449851 0.399455
vt 0.449851 0.000248
vt 0.499752 0.000248
vt 0.499752 0.399455
vt 0.149950 0.600050
vt 0.149950 0.799654
vt 0.100049 0.799654
vt 0.100049 0.600050
vt 0.261325 0.399951
vt 0.261325 0.599555
vt 0.211424 0.599555
vt 0.211424 0.399951
vt 0.733578 0.399951
vt 0.733578 0.599554
vt 0.677891 0.599555
vt 0.677891 0.399951
vt 0.349554 0.600050
vt 0.349554 0.799654
vt 0.299653 0.799654
vt 0.299653 0.600050
vt 0.649455 0.399455
vt 0.649455 0.000248
vt 0.699356 0.000248
vt 0.699356 0.399455
vt 0.000248 0.249753
vt 0.399455 0.249752
vt 0.399455 0.299653
vt 0.000248 0.299654
vt 0.399950 0.399455
vt 0.399950 0.000248
vt 0.000248 0.000248
vt 0.399455 0.000248
vt 0.455637 0.649951
vt 0.455637 0.699852
vt 0.399950 0.699852
vt 0.399950 0.649951
vt 0.000248 0.599554
vt 0.000248 0.399951
vt 0.055935 0.399951
vt 0.055935 0.599555
vt 0.522402 0.399951
vt 0.522402 0.599555
vt 0.399455 0.600050
vt 0.399455 0.799654
vt 0.155737 0.599555
vt 0.155737 0.399951
vt 0.105836 0.399951
vt 0.105836 0.599555
vt 0.366913 0.599555
vt 0.366913 0.399951
vt 0.627990 0.399951
vt 0.627990 0.599555
vt 0.578089 0.599555
vt 0.578089 0.399951
vt 0.317012 0.599555
vt 0.317012 0.399951
vt 0.449851 0.700347
vt 0.499752 0.700347
vt 0.499752 0.756034
vt 0.449851 0.756034
vt 0.568497 0.600050
vt 0.618398 0.600050
vt 0.618398 0.655737
vt 0.568497 0.655737
vt 0.399950 0.700347
vt 0.399950 0.756034
vt 0.568002 0.649951
vt 0.568002 0.699852
vt 0.512315 0.699852
vt 0.512315 0.649951
vt 0.511820 0.600050
vt 0.511820 0.649951
vt 0.456132 0.649951
vt 0.456132 0.600050
vt 0.568497 0.656232
vt 0.568497 0.711919
vt 0.568002 0.600050
vt 0.512315 0.600050
vt 0.511820 0.699852
vt 0.456132 0.699852
vt 0.668299 0.600050
vt 0.668299 0.655737
vt 0.455637 0.600050
vt 0.399950 0.600050
vn -1.0000 0.0000 0.0000
vn 0.0000 0.0000 1.0000
vn 1.0000 0.0000 0.0000
vn 0.0000 -1.0000 0.0000
vn 0.0000 0.0000 -1.0000
vn 0.0000 1.0000 0.0000
usemtl castle_01
s off
f 34/1/1 33/2/1 4/3/1 3/4/1
f 7/5/2 8/6/2 2/7/2 1/8/2
f 11/9/3 30/10/3 45/11/3 46/12/3
f 21/13/4 23/14/4 7/15/4 1/16/4
f 3/17/5 4/18/5 6/19/5 5/20/5
f 35/21/3 36/22/3 5/23/3 6/24/3
f 27/25/3 28/26/3 12/27/3 11/28/3
f 29/29/4 31/30/4 12/31/4 9/32/4
f 30/33/5 32/34/5 54/35/5 45/36/5
f 26/37/1 25/38/1 10/39/1 9/40/1
f 21/41/1 24/42/1 16/43/1 13/44/1
f 22/45/3 23/46/3 15/47/3 14/48/3
f 26/49/4 28/50/4 15/51/4 13/52/4
f 27/53/6 25/54/6 16/55/6 14/56/6
f 6/57/5 4/58/5 38/59/5 41/60/5
f 34/61/4 36/62/4 20/63/4 18/64/4
f 30/65/3 31/66/3 20/67/3 19/68/3
f 29/69/1 32/70/1 17/71/1 18/72/1
f 8/73/3 7/74/3 23/46/3 22/45/3
f 1/75/1 2/76/1 24/42/1 21/41/1
f 13/52/4 15/51/4 23/14/4 21/13/4
f 10/77/1 25/78/1 43/79/1 44/80/1
f 2/81/2 8/82/2 39/83/2 40/84/2
f 9/32/4 12/31/4 28/50/4 26/49/4
f 13/44/1 16/43/1 25/38/1 26/37/1
f 14/48/3 15/47/3 28/26/3 27/25/3
f 9/40/1 10/39/1 32/70/1 29/69/1
f 11/28/3 12/27/3 31/66/3 30/65/3
f 19/85/6 17/86/6 32/34/6 30/33/6
f 18/64/4 20/63/4 31/30/4 29/29/4
f 3/87/4 5/88/4 36/62/4 34/61/4
f 14/56/5 16/55/5 48/89/5 49/90/5
f 19/68/3 20/67/3 36/22/3 35/21/3
f 18/72/1 17/71/1 33/2/1 34/1/1
f 42/91/6 47/92/6 40/84/6 39/83/6
f 45/36/6 54/35/6 44/93/6 46/94/6
f 50/95/6 37/96/6 52/97/6 51/98/6
f 49/90/6 48/89/6 47/92/6 42/91/6
f 46/94/6 44/93/6 43/99/6 53/100/6
f 41/60/6 38/59/6 37/96/6 50/95/6
f 22/101/3 14/102/3 49/103/3 42/104/3
f 19/105/3 35/106/3 50/107/3 51/108/3
f 8/109/3 22/101/3 42/104/3 39/110/3
f 33/111/1 17/112/1 52/113/1 37/114/1
f 16/115/1 24/116/1 47/117/1 48/118/1
f 27/119/3 11/9/3 46/12/3 53/120/3
f 4/121/1 33/111/1 37/114/1 38/122/1
f 24/116/1 2/123/1 40/124/1 47/117/1
f 17/86/2 19/85/2 51/98/2 52/97/2
f 35/106/3 6/125/3 41/126/3 50/107/3
f 32/127/1 10/77/1 44/80/1 54/128/1
f 25/54/2 27/53/2 53/100/2 43/99/2
