# Blender v2.79 (sub 0) OBJ File: 'tower_01.blend'
# www.blender.org
mtllib floor.mtl
o stage_floor_Cube.003
v -6.000000 -1.000000 -3.000000
v -6.000000 1.000000 -3.000000
v -6.000000 1.000001 -6.000000
v -6.000000 -0.999999 -6.000000
v 3.000000 -0.999999 -6.000000
v 3.000000 1.000001 -6.000000
v 6.000000 1.000001 -6.000000
v 6.000000 -0.999999 -6.000000
v 6.000000 -1.000000 3.000000
v 6.000000 1.000000 3.000000
v 6.000000 0.999999 6.000000
v 6.000000 -1.000001 6.000000
v -3.000000 -1.000001 6.000000
v -3.000000 0.999999 6.000000
v -6.000000 0.999999 6.000000
v -6.000000 -1.000001 6.000000
v 3.000000 -1.000000 3.000000
v 3.000000 -1.000001 6.000000
v -3.000000 1.000000 3.000000
v -6.000000 1.000000 3.000000
v 3.000000 1.000000 3.000000
v 0.000000 1.000000 3.000000
v 0.000000 0.999999 6.000000
v 3.000000 0.999999 6.000000
v -3.000000 -1.000000 3.000000
v 0.000000 -1.000000 3.000000
v 0.000000 -1.000001 6.000000
v -3.000000 -0.999999 -6.000000
v -3.000000 1.000001 -6.000000
v 0.000000 1.000001 -6.000000
v 0.000000 -0.999999 -6.000000
v -3.000000 -1.000000 -3.000000
v 0.000000 -1.000000 -3.000000
v 0.000000 -1.000000 -0.000000
v -3.000000 -1.000000 -0.000000
v 3.000000 1.000000 -3.000000
v 0.000000 1.000000 -3.000000
v 0.000000 1.000000 0.000000
v 3.000000 1.000000 0.000000
v -3.000000 1.000000 -3.000000
v -6.000000 1.000000 0.000000
v -3.000000 1.000000 0.000000
v 3.000000 -1.000000 -3.000000
v 6.000000 -1.000000 -3.000000
v 6.000000 -1.000000 -0.000000
v 3.000000 -1.000000 -0.000000
v 6.000000 1.000000 -3.000000
v 6.000000 1.000000 0.000000
v -6.000000 -1.000000 3.000000
v -6.000000 -1.000000 -0.000000
vt 0.812456 0.500282
vt 0.812456 0.541943
vt 0.749965 0.541943
vt 0.749965 0.500282
vt 0.562491 0.500282
vt 0.562491 0.541943
vt 0.500000 0.541943
vt 0.500000 0.500282
vt 0.312526 0.500282
vt 0.312526 0.541943
vt 0.250035 0.541943
vt 0.250035 0.500282
vt 0.062562 0.500282
vt 0.062562 0.541943
vt 0.000070 0.541943
vt 0.000070 0.500282
vt 0.187544 0.437650
vt 0.250035 0.437650
vt 0.250035 0.500141
vt 0.187544 0.500141
vt 0.062562 0.187544
vt 0.062562 0.250035
vt 0.000070 0.250035
vt 0.000070 0.187544
vt 0.062562 0.062562
vt 0.062562 0.125053
vt 0.000070 0.125053
vt 0.000071 0.062562
vt 0.062562 0.437650
vt 0.125053 0.437650
vt 0.125053 0.500141
vt 0.062562 0.500141
vt 0.187544 0.500282
vt 0.187544 0.541943
vt 0.125053 0.541943
vt 0.125053 0.500282
vt 0.687473 0.500282
vt 0.687473 0.541943
vt 0.624982 0.541943
vt 0.624982 0.500282
vt 0.062562 0.312667
vt 0.125053 0.312667
vt 0.125053 0.375159
vt 0.062562 0.375159
vt 0.187544 0.062562
vt 0.187544 0.125053
vt 0.125053 0.125053
vt 0.125053 0.062562
vt 0.187544 0.187544
vt 0.187544 0.250035
vt 0.125053 0.250035
vt 0.125053 0.187544
vt 0.187544 0.312667
vt 0.250035 0.312667
vt 0.250035 0.375159
vt 0.187544 0.375159
vt 0.437509 0.500282
vt 0.437509 0.541943
vt 0.375017 0.541943
vt 0.375017 0.500282
vt 0.937438 0.500282
vt 0.937438 0.541943
vt 0.874947 0.541943
vt 0.874947 0.500282
vt 0.000070 0.312667
vt 0.000070 0.375159
vt 0.000071 0.437650
vt 0.000071 0.500141
vt 0.187544 0.000070
vt 0.125053 0.000070
vt 0.062562 0.000071
vt 0.000071 0.000071
vt 0.999929 0.500282
vt 0.999930 0.541943
vt 0.250035 0.000070
vt 0.250035 0.062562
vt 0.125053 0.250176
vt 0.187544 0.250176
vt 0.000070 0.250176
vt 0.062562 0.250176
vt 0.250035 0.125053
vt 0.250035 0.187544
vt 0.250035 0.250176
vt 0.250035 0.250035
vn -1.0000 -0.0000 0.0000
vn 0.0000 0.0000 -1.0000
vn 1.0000 0.0000 0.0000
vn 0.0000 0.0000 1.0000
vn 0.0000 -1.0000 -0.0000
vn 0.0000 1.0000 0.0000
usemtl stage.001
s off
f 1/1/1 2/2/1 3/3/1 4/4/1
f 5/5/2 6/6/2 7/7/2 8/8/2
f 9/9/3 10/10/3 11/11/3 12/12/3
f 13/13/4 14/14/4 15/15/4 16/16/4
f 17/17/5 9/18/5 12/19/5 18/20/5
f 19/21/6 20/22/6 15/23/6 14/24/6
f 21/25/6 22/26/6 23/27/6 24/28/6
f 25/29/5 26/30/5 27/31/5 13/32/5
f 18/33/4 24/34/4 23/35/4 27/36/4
f 28/37/2 29/38/2 30/39/2 31/40/2
f 32/41/5 33/42/5 34/43/5 35/44/5
f 36/45/6 37/46/6 38/47/6 39/48/6
f 40/49/6 2/50/6 41/51/6 42/52/6
f 43/53/5 44/54/5 45/55/5 46/56/5
f 44/57/3 47/58/3 48/59/3 45/60/3
f 49/61/1 20/62/1 41/63/1 50/64/1
f 37/46/6 40/49/6 42/52/6 38/47/6
f 1/65/5 32/41/5 35/44/5 50/66/5
f 4/4/2 3/3/2 29/38/2 28/37/2
f 49/67/5 25/29/5 13/32/5 16/68/5
f 22/26/6 19/21/6 14/24/6 23/27/6
f 27/36/4 23/35/4 14/14/4 13/13/4
f 33/42/5 43/53/5 46/56/5 34/43/5
f 47/69/6 36/45/6 39/48/6 48/70/6
f 12/12/4 11/11/4 24/34/4 18/33/4
f 10/71/6 21/25/6 24/28/6 11/72/6
f 26/30/5 17/17/5 18/20/5 27/31/5
f 31/40/2 30/39/2 6/6/2 5/5/2
f 34/43/5 46/56/5 17/17/5 26/30/5
f 48/70/6 39/48/6 21/25/6 10/71/6
f 38/47/6 42/52/6 19/21/6 22/26/6
f 50/66/5 35/44/5 25/29/5 49/67/5
f 16/73/1 15/74/1 20/62/1 49/61/1
f 35/44/5 34/43/5 26/30/5 25/29/5
f 39/48/6 38/47/6 22/26/6 21/25/6
f 42/52/6 41/51/6 20/22/6 19/21/6
f 46/56/5 45/55/5 9/18/5 17/17/5
f 45/60/3 48/59/3 10/10/3 9/9/3
f 7/75/6 6/76/6 36/45/6 47/69/6
f 31/77/5 5/78/5 43/53/5 33/42/5
f 4/79/5 28/80/5 32/41/5 1/65/5
f 30/81/6 29/82/6 40/49/6 37/46/6
f 8/8/3 7/7/3 47/58/3 44/57/3
f 5/78/5 8/83/5 44/54/5 43/53/5
f 29/82/6 3/84/6 2/50/6 40/49/6
f 6/76/6 30/81/6 37/46/6 36/45/6
f 28/80/5 31/77/5 33/42/5 32/41/5
f 50/64/1 41/63/1 2/2/1 1/1/1
