# Blender v2.79 (sub 0) OBJ File: 'goal.blend'
# www.blender.org
mtllib goal.mtl
o Circle
v 0.000000 -0.012808 -1.000000
v -0.195090 -0.012808 -0.980785
v -0.382683 -0.012808 -0.923880
v -0.555570 -0.012808 -0.831470
v -0.707107 -0.012808 -0.707107
v -0.831470 -0.012808 -0.555570
v -0.923880 -0.012808 -0.382683
v -0.980785 -0.012808 -0.195090
v -1.000000 -0.012808 -0.000000
v -0.980785 -0.012808 0.195090
v -0.923880 -0.012808 0.382683
v -0.831470 -0.012808 0.555570
v -0.707107 -0.012808 0.707107
v -0.555570 -0.012808 0.831470
v -0.382683 -0.012808 0.923880
v -0.195090 -0.012808 0.980785
v 0.000000 -0.012808 1.000000
v 0.195091 -0.012808 0.980785
v 0.382684 -0.012808 0.923879
v 0.555571 -0.012808 0.831469
v 0.707107 -0.012808 0.707106
v 0.831470 -0.012808 0.555570
v 0.923880 -0.012808 0.382683
v 0.980785 -0.012808 0.195089
v 1.000000 -0.012808 -0.000001
v 0.980785 -0.012808 -0.195091
v 0.923879 -0.012808 -0.382684
v 0.831469 -0.012808 -0.555571
v 0.707106 -0.012808 -0.707108
v 0.555569 -0.012808 -0.831470
v 0.382682 -0.012808 -0.923880
v 0.195089 -0.012808 -0.980786
v -0.000000 0.091975 -0.912921
v -0.178102 0.091975 -0.895379
v -0.349360 0.091975 -0.843429
v -0.507192 0.091975 -0.759066
v -0.645532 0.091975 -0.645532
v -0.759066 0.091975 -0.507192
v -0.843429 0.091975 -0.349360
v -0.895379 0.091975 -0.178102
v -0.912921 0.091975 -0.000000
v -0.895379 0.091975 0.178102
v -0.843429 0.091975 0.349359
v -0.759066 0.091975 0.507191
v -0.645532 0.091975 0.645532
v -0.507192 0.091975 0.759066
v -0.349360 0.091975 0.843429
v -0.178102 0.091975 0.895379
v 0.000000 0.091975 0.912921
v 0.178102 0.091975 0.895379
v 0.349360 0.091975 0.843429
v 0.507192 0.091975 0.759066
v 0.645533 0.091975 0.645532
v 0.759066 0.091975 0.507191
v 0.843429 0.091975 0.349359
v 0.895379 0.091975 0.178101
v 0.912921 0.091975 -0.000001
v 0.895379 0.091975 -0.178103
v 0.843428 0.091975 -0.349361
v 0.759065 0.091975 -0.507193
v 0.645532 0.091975 -0.645533
v 0.507191 0.091975 -0.759067
v 0.349358 0.091975 -0.843429
v 0.178101 0.091975 -0.895379
v -0.000000 -0.033342 -1.073317
v -0.209394 -0.033342 -1.052693
v -0.410741 -0.033342 -0.991616
v -0.596303 -0.033342 -0.892430
v -0.758950 -0.033342 -0.758950
v -0.892431 -0.033342 -0.596303
v -0.991616 -0.033342 -0.410741
v -1.052693 -0.033342 -0.209394
v -1.073317 -0.033342 -0.000000
v -1.052694 -0.033342 0.209394
v -0.991616 -0.033342 0.410740
v -0.892431 -0.033342 0.596303
v -0.758950 -0.033342 0.758950
v -0.596303 -0.033342 0.892431
v -0.410740 -0.033342 0.991616
v -0.209394 -0.033342 1.052694
v 0.000000 -0.033342 1.073317
v 0.209394 -0.033342 1.052693
v 0.410741 -0.033342 0.991615
v 0.596304 -0.033342 0.892430
v 0.758950 -0.033342 0.758949
v 0.892431 -0.033342 0.596302
v 0.991616 -0.033342 0.410740
v 1.052694 -0.033342 0.209393
v 1.073317 -0.033342 -0.000001
v 1.052693 -0.033342 -0.209395
v 0.991615 -0.033342 -0.410742
v 0.892430 -0.033342 -0.596304
v 0.758949 -0.033342 -0.758951
v 0.596302 -0.033342 -0.892431
v 0.410739 -0.033342 -0.991616
v 0.209392 -0.033342 -1.052694
v -0.000000 -0.109142 -1.193220
v -0.232786 -0.109142 -1.170293
v -0.456626 -0.109142 -1.102392
v -0.662918 -0.109142 -0.992127
v -0.843734 -0.109142 -0.843734
v -0.992127 -0.109142 -0.662918
v -1.102392 -0.109142 -0.456626
v -1.170293 -0.109142 -0.232786
v -1.193220 -0.109142 -0.000000
v -1.170293 -0.109142 0.232786
v -1.102392 -0.109142 0.456626
v -0.992127 -0.109142 0.662918
v -0.843734 -0.109142 0.843734
v -0.662918 -0.109142 0.992127
v -0.456625 -0.109142 1.102392
v -0.232785 -0.109142 1.170293
v 0.000000 -0.109142 1.193220
v 0.232786 -0.109142 1.170293
v 0.456626 -0.109142 1.102392
v 0.662918 -0.109142 0.992126
v 0.843735 -0.109142 0.843734
v 0.992127 -0.109142 0.662917
v 1.102392 -0.109142 0.456625
v 1.170293 -0.109142 0.232785
v 1.193220 -0.109142 -0.000001
v 1.170293 -0.109142 -0.232787
v 1.102391 -0.109142 -0.456627
v 0.992126 -0.109142 -0.662919
v 0.843733 -0.109142 -0.843735
v 0.662916 -0.109142 -0.992127
v 0.456624 -0.109142 -1.102393
v 0.232784 -0.109142 -1.170293
v -0.000000 -0.190759 -1.193220
v -0.232786 -0.190759 -1.170293
v -0.456626 -0.190759 -1.102392
v -0.662918 -0.190759 -0.992127
v -0.843734 -0.190759 -0.843734
v -0.992127 -0.190759 -0.662918
v -1.102392 -0.190759 -0.456626
v -1.170293 -0.190759 -0.232786
v -1.193220 -0.190759 -0.000000
v -1.170293 -0.190759 0.232786
v -1.102392 -0.190759 0.456626
v -0.992127 -0.190759 0.662918
v -0.843734 -0.190759 0.843734
v -0.662918 -0.190759 0.992127
v -0.456625 -0.190759 1.102392
v -0.232785 -0.190759 1.170293
v 0.000000 -0.190759 1.193220
v 0.232786 -0.190759 1.170293
v 0.456626 -0.190759 1.102392
v 0.662918 -0.190759 0.992126
v 0.843735 -0.190759 0.843734
v 0.992127 -0.190759 0.662917
v 1.102392 -0.190759 0.456625
v 1.170293 -0.190759 0.232785
v 1.193220 -0.190759 -0.000001
v 1.170293 -0.190759 -0.232787
v 1.102391 -0.190759 -0.456627
v 0.992126 -0.190759 -0.662919
v 0.843733 -0.190759 -0.843735
v 0.662916 -0.190759 -0.992127
v 0.456624 -0.190759 -1.102393
v 0.232784 -0.190759 -1.170293
v -1.073317 0.125325 -0.000000
v -1.052693 0.125325 -0.209394
v 0.000000 0.125325 1.073317
v -0.209394 0.125325 1.052694
v 1.073317 0.125325 -0.000001
v 1.052694 0.125325 0.209393
v -0.000000 0.125325 -1.073317
v 0.209392 0.125325 -1.052694
v -1.193220 0.049524 -0.000000
v -1.170293 0.049524 -0.232786
v 0.000000 0.049524 1.193220
v -0.232785 0.049524 1.170293
v 1.193220 0.049524 -0.000001
v 1.170293 0.049524 0.232785
v -0.000000 0.049524 -1.193220
v 0.232784 0.049524 -1.170293
vt 0.849220 0.034667
vt 0.862840 0.027350
vt 0.864880 0.032074
vt 0.851969 0.039180
vt 0.160210 0.798431
vt 0.122915 0.741830
vt 0.097272 0.678959
vt 0.084194 0.612258
vt 0.084250 0.544267
vt 0.097263 0.477589
vt 0.122800 0.414811
vt 0.160000 0.358325
vt 0.207318 0.310306
vt 0.263130 0.272593
vt 0.325285 0.246619
vt 0.391369 0.233392
vt 0.458809 0.233433
vt 0.524982 0.246751
vt 0.587316 0.272838
vt 0.643405 0.310698
vt 0.691152 0.358828
vt 0.728640 0.415406
vt 0.754466 0.478244
vt 0.767586 0.544935
vt 0.767507 0.612930
vt 0.754356 0.679607
vt 0.728547 0.742393
vt 0.691126 0.798909
vt 0.643632 0.846987
vt 0.587728 0.884731
vt 0.525548 0.910710
vt 0.459512 0.923926
vt 0.392160 0.923859
vt 0.326091 0.910508
vt 0.263804 0.884421
vt 0.207785 0.846578
vt 0.046287 0.462711
vt 0.075757 0.390403
vt 0.820532 0.539460
vt 0.820510 0.617812
vt 0.118667 0.325294
vt 0.805358 0.694629
vt 0.173305 0.269890
vt 0.775614 0.766986
vt 0.237737 0.226283
vt 0.732470 0.832093
vt 0.309504 0.196202
vt 0.677652 0.887500
vt 0.385819 0.180827
vt 0.613112 0.931083
vt 0.463713 0.180767
vt 0.541311 0.961121
vt 0.540152 0.196031
vt 0.174210 0.887602
vt 0.119209 0.832128
vt 0.465039 0.976444
vt 0.612168 0.226028
vt 0.076075 0.766919
vt 0.387236 0.976461
vt 0.676977 0.269590
vt 0.046411 0.694517
vt 0.310902 0.961174
vt 0.732127 0.325008
vt 0.031283 0.617715
vt 0.238951 0.931178
vt 0.775464 0.390180
vt 0.031283 0.539443
vt 0.805325 0.462590
vt 0.920690 0.172481
vt 0.905624 0.175483
vt 0.905083 0.169876
vt 0.919188 0.167141
vt 0.837469 0.044848
vt 0.841848 0.048662
vt 0.934733 0.167011
vt 0.932619 0.162273
vt 0.828395 0.059173
vt 0.833646 0.062055
vt 0.948331 0.159380
vt 0.945467 0.154902
vt 0.822374 0.073748
vt 0.827811 0.075474
vt 0.959849 0.148841
vt 0.955358 0.145104
vt 0.819270 0.088894
vt 0.824851 0.089522
vt 0.968728 0.134259
vt 0.963399 0.131445
vt 0.819163 0.104219
vt 0.824709 0.103762
vt 0.974556 0.119522
vt 0.969075 0.117860
vt 0.821964 0.119144
vt 0.827259 0.117710
vt 0.977494 0.104307
vt 0.971901 0.103726
vt 0.827256 0.133095
vt 0.831976 0.131037
vt 0.936911 0.026856
vt 0.951521 0.035435
vt 0.947853 0.039906
vt 0.934220 0.032196
vt 0.977494 0.088999
vt 0.971964 0.089479
vt 0.834711 0.146687
vt 0.839188 0.143861
vt 0.922153 0.021384
vt 0.920621 0.026869
vt 0.974647 0.074158
vt 0.969391 0.075599
vt 0.845190 0.158230
vt 0.848923 0.153737
vt 0.906950 0.018791
vt 0.906485 0.024382
vt 0.969348 0.060348
vt 0.964677 0.062402
vt 0.859846 0.167107
vt 0.862640 0.161737
vt 0.891653 0.019055
vt 0.892213 0.024593
vt 0.961932 0.046908
vt 0.957496 0.049718
vt 0.874733 0.172847
vt 0.876350 0.167306
vt 0.876772 0.022041
vt 0.878245 0.027329
vt 0.890122 0.175641
vt 0.890644 0.169980
vt 0.893136 0.033308
vt 0.880676 0.035775
vt 0.948798 0.055199
vt 0.940413 0.047610
vt 0.947922 0.047491
vt 0.949263 0.049384
vt 0.878877 0.158692
vt 0.891443 0.161119
vt 0.868610 0.040418
vt 0.904203 0.161071
vt 0.857351 0.048147
vt 0.916731 0.158646
vt 0.939905 0.146080
vt 0.947565 0.137404
vt 0.947697 0.145174
vt 0.945796 0.146534
vt 0.928784 0.153957
vt 0.849349 0.056426
vt 0.841518 0.066664
vt 0.836258 0.078174
vt 0.856526 0.145915
vt 0.847534 0.146443
vt 0.848835 0.146075
vt 0.833562 0.090485
vt 0.955406 0.126924
vt 0.833388 0.103014
vt 0.960548 0.115242
vt 0.835667 0.115350
vt 0.963152 0.102814
vt 0.840262 0.127293
vt 0.929906 0.040206
vt 0.963293 0.090243
vt 0.847939 0.138404
vt 0.918226 0.035404
vt 0.961042 0.077951
vt 0.946980 0.146950
vt 0.905783 0.033145
vt 0.956463 0.066142
vt 0.867099 0.153695
vt 0.860219 0.051484
vt 0.852199 0.059097
vt 0.915437 0.154400
vt 0.926626 0.149901
vt 0.845186 0.068740
vt 0.936949 0.142851
vt 0.840404 0.079485
vt 0.944576 0.134737
vt 0.837871 0.090932
vt 0.951681 0.124876
vt 0.837692 0.102597
vt 0.956350 0.113965
vt 0.839856 0.114094
vt 0.958812 0.102384
vt 0.844311 0.125180
vt 0.937900 0.050520
vt 0.927973 0.043942
vt 0.958984 0.090653
vt 0.851139 0.135513
vt 0.917073 0.039602
vt 0.956885 0.079191
vt 0.859132 0.142922
vt 0.905475 0.037501
vt 0.952466 0.068250
vt 0.869111 0.149947
vt 0.893647 0.037660
vt 0.945604 0.058070
vt 0.880094 0.154455
vt 0.881971 0.040014
vt 0.891804 0.156720
vt 0.870735 0.044505
vt 0.903722 0.156687
vt 0.949220 0.047128
vt 0.949679 0.048209
vt 0.849131 0.047499
vt 0.850234 0.047064
vt 0.851415 0.047518
vt 0.849460 0.048820
vt 0.948066 0.146484
vt 0.847070 0.145364
vt 0.847482 0.144191
vn -0.2645 0.9629 -0.0526
vn -0.2492 0.9629 -0.1032
vn -0.3823 0.9104 -0.1584
vn -0.3574 0.9296 -0.0905
vn 0.0000 1.0000 0.0000
vn -0.7105 0.6391 -0.2943
vn -0.7543 0.6391 -0.1500
vn 0.5438 0.6391 0.5438
vn 0.6395 0.6391 0.4273
vn -0.7691 0.6391 -0.0000
vn 0.7105 0.6391 0.2943
vn -0.7543 0.6391 0.1500
vn 0.7543 0.6391 0.1500
vn -0.7105 0.6391 0.2943
vn 0.7691 0.6391 -0.0000
vn -0.6395 0.6391 0.4273
vn 0.7543 0.6391 -0.1500
vn -0.5438 0.6391 0.5438
vn 0.7105 0.6391 -0.2943
vn -0.4273 0.6391 0.6395
vn 0.6395 0.6391 -0.4273
vn -0.2943 0.6391 0.7105
vn -0.0000 0.6391 -0.7691
vn -0.1500 0.6391 -0.7543
vn 0.5438 0.6391 -0.5438
vn -0.1500 0.6391 0.7543
vn -0.2943 0.6391 -0.7105
vn 0.4273 0.6391 -0.6395
vn 0.0000 0.6391 0.7691
vn -0.4273 0.6391 -0.6395
vn 0.2943 0.6391 -0.7105
vn 0.1500 0.6391 0.7543
vn -0.5438 0.6391 -0.5438
vn 0.1500 0.6391 -0.7543
vn 0.2943 0.6391 0.7105
vn -0.6395 0.6391 -0.4273
vn 0.4273 0.6391 0.6395
vn 0.2242 0.9629 0.1498
vn 0.1907 0.9629 0.1907
vn 0.2926 0.9104 0.2926
vn 0.3441 0.9104 0.2299
vn -0.2697 0.9629 -0.0000
vn -0.3682 0.9296 0.0191
vn 0.2492 0.9629 0.1032
vn 0.3823 0.9104 0.1584
vn -0.2645 0.9629 0.0526
vn -0.4059 0.9104 0.0807
vn 0.2645 0.9629 0.0526
vn 0.3574 0.9296 0.0905
vn -0.2492 0.9629 0.1032
vn -0.3823 0.9104 0.1584
vn 0.2697 0.9629 -0.0000
vn 0.3682 0.9296 -0.0191
vn -0.2242 0.9629 0.1498
vn -0.3441 0.9104 0.2299
vn 0.2645 0.9629 -0.0526
vn 0.4059 0.9104 -0.0807
vn -0.1907 0.9629 0.1907
vn -0.2926 0.9104 0.2926
vn 0.2492 0.9629 -0.1032
vn 0.3823 0.9104 -0.1584
vn -0.1498 0.9629 0.2242
vn -0.2299 0.9104 0.3441
vn 0.2242 0.9629 -0.1498
vn 0.3441 0.9104 -0.2299
vn -0.1032 0.9629 0.2492
vn -0.1584 0.9104 0.3823
vn -0.0526 0.9629 -0.2645
vn -0.0000 0.9629 -0.2697
vn -0.0191 0.9296 -0.3682
vn -0.0807 0.9104 -0.4059
vn 0.1907 0.9629 -0.1907
vn 0.2926 0.9104 -0.2926
vn -0.0526 0.9629 0.2645
vn -0.0905 0.9296 0.3574
vn -0.1032 0.9629 -0.2492
vn -0.1584 0.9104 -0.3823
vn 0.1498 0.9629 -0.2242
vn 0.2299 0.9104 -0.3441
vn 0.0000 0.9629 0.2697
vn 0.0191 0.9296 0.3682
vn -0.1498 0.9629 -0.2242
vn -0.2299 0.9104 -0.3441
vn 0.1032 0.9629 -0.2492
vn 0.1584 0.9104 -0.3823
vn 0.0526 0.9629 0.2645
vn 0.0807 0.9104 0.4059
vn -0.1907 0.9629 -0.1907
vn -0.2926 0.9104 -0.2926
vn 0.0526 0.9629 -0.2645
vn 0.0905 0.9296 -0.3574
vn 0.1032 0.9629 0.2492
vn 0.1584 0.9104 0.3823
vn -0.2242 0.9629 -0.1498
vn -0.3441 0.9104 -0.2299
vn 0.1498 0.9629 0.2242
vn 0.2299 0.9104 0.3441
vn -0.3778 0.8453 -0.3778
vn -0.4443 0.8453 -0.2969
vn 0.1628 0.0000 -0.9867
vn 0.0328 0.0000 -0.9995
vn 0.0980 0.0000 -0.9952
vn 0.2045 0.8453 0.4937
vn 0.2969 0.8453 0.4443
vn -0.4937 0.8453 -0.2045
vn 0.3778 0.8453 0.3778
vn -0.5131 0.8441 -0.1557
vn 0.4443 0.8453 0.2969
vn 0.9867 0.0000 0.1628
vn 0.9995 0.0000 0.0328
vn 0.9952 0.0000 0.0980
vn 0.4937 0.8453 0.2045
vn -0.5336 0.8441 0.0526
vn -0.5241 0.8453 0.1042
vn 0.5131 0.8441 0.1557
vn -0.4937 0.8453 0.2045
vn 1.0000 0.0000 -0.0000
vn -0.4443 0.8453 0.2969
vn 0.5336 0.8441 -0.0526
vn 0.5241 0.8453 -0.1042
vn -0.3778 0.8453 0.3778
vn 0.4937 0.8453 -0.2045
vn -0.2969 0.8453 0.4443
vn 0.4443 0.8453 -0.2969
vn -0.2045 0.8453 0.4937
vn -0.0526 0.8441 -0.5336
vn -0.1042 0.8453 -0.5241
vn 0.3778 0.8453 -0.3778
vn -0.1557 0.8441 0.5131
vn -0.2045 0.8453 -0.4937
vn 0.2969 0.8453 -0.4443
vn -0.1951 0.0000 0.9808
vn -0.2969 0.8453 -0.4443
vn 0.2045 0.8453 -0.4937
vn 0.0526 0.8441 0.5336
vn 0.1042 0.8453 0.5241
vn 0.1556 0.8441 -0.5131
vn -0.9995 0.0000 -0.0328
vn -0.9867 0.0000 -0.1628
vn -0.9808 0.0000 -0.1951
vn -1.0000 0.0000 -0.0000
vn 0.9239 0.0000 0.3827
vn 0.8315 0.0000 0.5556
vn -0.9808 0.0000 0.1951
vn 0.9808 0.0000 0.1951
vn -0.9239 0.0000 0.3827
vn -0.8315 0.0000 0.5556
vn 0.9808 0.0000 -0.1951
vn -0.7071 0.0000 0.7071
vn 0.9239 0.0000 -0.3827
vn -0.5556 0.0000 0.8315
vn 0.8315 0.0000 -0.5556
vn -0.3827 0.0000 0.9239
vn -0.1951 0.0000 -0.9808
vn -0.0000 0.0000 -1.0000
vn 0.7071 0.0000 -0.7071
vn -0.1628 0.0000 0.9867
vn -0.3827 0.0000 -0.9239
vn 0.5556 0.0000 -0.8315
vn -0.0328 0.0000 0.9995
vn 0.0000 0.0000 1.0000
vn -0.5556 0.0000 -0.8315
vn 0.3827 0.0000 -0.9239
vn 0.1951 0.0000 0.9808
vn -0.7071 0.0000 -0.7071
vn 0.1951 0.0000 -0.9808
vn 0.3827 0.0000 0.9239
vn -0.8315 0.0000 -0.5556
vn 0.5556 0.0000 0.8315
vn -0.9239 0.0000 -0.3827
vn 0.7071 0.0000 0.7071
vn 0.0000 -1.0000 0.0000
vn 0.0526 0.8441 -0.5336
vn -0.5336 0.8441 -0.0526
vn 0.5336 0.8441 0.0526
vn -0.0526 0.8441 0.5336
vn -0.9952 0.0000 -0.0980
vn -0.0980 0.0000 0.9952
usemtl goal
s 1
f 8/1/1 7/2/2 71/3/3 72/4/4
f 34/5/5 35/6/5 36/7/5 37/8/5 38/9/5 39/10/5 40/11/5 41/12/5 42/13/5 43/14/5 44/15/5 45/16/5 46/17/5 47/18/5 48/19/5 49/20/5 50/21/5 51/22/5 52/23/5 53/24/5 54/25/5 55/26/5 56/27/5 57/28/5 58/29/5 59/30/5 60/31/5 61/32/5 62/33/5 63/34/5 64/35/5 33/36/5
f 7/37/6 8/38/7 40/11/7 39/10/6
f 21/39/8 22/40/9 54/25/9 53/24/8
f 8/38/7 9/41/10 41/12/10 40/11/7
f 22/40/9 23/42/11 55/26/11 54/25/9
f 9/41/10 10/43/12 42/13/12 41/12/10
f 23/42/11 24/44/13 56/27/13 55/26/11
f 10/43/12 11/45/14 43/14/14 42/13/12
f 24/44/13 25/46/15 57/28/15 56/27/13
f 11/45/14 12/47/16 44/15/16 43/14/14
f 25/46/15 26/48/17 58/29/17 57/28/15
f 12/47/16 13/49/18 45/16/18 44/15/16
f 26/48/17 27/50/19 59/30/19 58/29/17
f 13/49/18 14/51/20 46/17/20 45/16/18
f 27/50/19 28/52/21 60/31/21 59/30/19
f 14/51/20 15/53/22 47/18/22 46/17/20
f 1/54/23 2/55/24 34/5/24 33/36/23
f 28/52/21 29/56/25 61/32/25 60/31/21
f 15/53/22 16/57/26 48/19/26 47/18/22
f 2/55/24 3/58/27 35/6/27 34/5/24
f 29/56/25 30/59/28 62/33/28 61/32/25
f 16/57/26 17/60/29 49/20/29 48/19/26
f 3/58/27 4/61/30 36/7/30 35/6/27
f 30/59/28 31/62/31 63/34/31 62/33/28
f 17/60/29 18/63/32 50/21/32 49/20/29
f 4/61/30 5/64/33 37/8/33 36/7/30
f 31/62/31 32/65/34 64/35/34 63/34/31
f 18/63/32 19/66/35 51/22/35 50/21/32
f 5/64/33 6/67/36 38/9/36 37/8/33
f 32/65/34 1/54/23 33/36/23 64/35/34
f 19/66/35 20/68/37 52/23/37 51/22/35
f 6/67/36 7/37/6 39/10/6 38/9/36
f 20/68/37 21/39/8 53/24/8 52/23/37
f 22/69/38 21/70/39 85/71/40 86/72/41
f 9/73/42 8/1/1 72/4/4 73/74/43
f 23/75/44 22/69/38 86/72/41 87/76/45
f 10/77/46 9/73/42 73/74/43 74/78/47
f 24/79/48 23/75/44 87/76/45 88/80/49
f 11/81/50 10/77/46 74/78/47 75/82/51
f 25/83/52 24/79/48 88/80/49 89/84/53
f 12/85/54 11/81/50 75/82/51 76/86/55
f 26/87/56 25/83/52 89/84/53 90/88/57
f 13/89/58 12/85/54 76/86/55 77/90/59
f 27/91/60 26/87/56 90/88/57 91/92/61
f 14/93/62 13/89/58 77/90/59 78/94/63
f 28/95/64 27/91/60 91/92/61 92/96/65
f 15/97/66 14/93/62 78/94/63 79/98/67
f 2/99/68 1/100/69 65/101/70 66/102/71
f 29/103/72 28/95/64 92/96/65 93/104/73
f 16/105/74 15/97/66 79/98/67 80/106/75
f 3/107/76 2/99/68 66/102/71 67/108/77
f 30/109/78 29/103/72 93/104/73 94/110/79
f 17/111/80 16/105/74 80/106/75 81/112/81
f 4/113/82 3/107/76 67/108/77 68/114/83
f 31/115/84 30/109/78 94/110/79 95/116/85
f 18/117/86 17/111/80 81/112/81 82/118/87
f 5/119/88 4/113/82 68/114/83 69/120/89
f 32/121/90 31/115/84 95/116/85 96/122/91
f 19/123/92 18/117/86 82/118/87 83/124/93
f 6/125/94 5/119/88 69/120/89 70/126/95
f 1/100/69 32/121/90 96/122/91 65/101/70
f 20/127/96 19/123/92 83/124/93 84/128/97
f 7/2/2 6/125/94 70/126/95 71/3/3
f 21/70/39 20/127/96 84/128/97 85/71/40
f 70/126/95 69/120/89 101/129/98 102/130/99
f 128/131/100 97/132/101 175/133/102 176/134/102
f 84/128/97 83/124/93 115/135/103 116/136/104
f 71/3/3 70/126/95 102/130/99 103/137/105
f 85/71/40 84/128/97 116/136/104 117/138/106
f 72/4/4 71/3/3 103/137/105 104/139/107
f 86/72/41 85/71/40 117/138/106 118/140/108
f 120/141/109 121/142/110 173/143/111 174/144/111
f 87/76/45 86/72/41 118/140/108 119/145/112
f 74/78/47 73/74/43 105/146/113 106/147/114
f 88/80/49 87/76/45 119/145/112 120/141/115
f 75/82/51 74/78/47 106/147/114 107/148/116
f 113/149/117 81/112/117 163/150/117 171/151/117
f 76/86/55 75/82/51 107/148/116 108/152/118
f 90/88/57 89/84/53 121/142/119 122/153/120
f 77/90/59 76/86/55 108/152/118 109/154/121
f 91/92/61 90/88/57 122/153/120 123/155/122
f 78/94/63 77/90/59 109/154/121 110/156/123
f 92/96/65 91/92/61 123/155/122 124/157/124
f 79/98/67 78/94/63 110/156/123 111/158/125
f 66/102/71 65/101/70 97/132/126 98/159/127
f 93/104/73 92/96/65 124/157/124 125/160/128
f 80/106/75 79/98/67 111/158/125 112/161/129
f 67/108/77 66/102/71 98/159/127 99/162/130
f 94/110/79 93/104/73 125/160/128 126/163/131
f 88/80/132 120/141/132 174/144/132 166/164/132
f 68/114/83 67/108/77 99/162/130 100/165/133
f 95/116/85 94/110/79 126/163/131 127/166/134
f 82/118/87 81/112/81 113/149/135 114/167/136
f 69/120/89 68/114/83 100/165/133 101/129/98
f 96/122/91 95/116/85 127/166/134 128/131/137
f 83/124/93 82/118/87 114/167/136 115/135/103
f 105/146/138 104/139/139 136/168/140 137/169/141
f 119/145/142 118/140/143 150/170/143 151/171/142
f 106/147/144 105/146/138 137/169/141 138/172/144
f 120/141/109 119/145/142 151/171/142 152/173/145
f 107/148/146 106/147/144 138/172/144 139/174/146
f 121/142/110 120/141/109 152/173/145 153/175/117
f 108/152/147 107/148/146 139/174/146 140/176/147
f 122/153/148 121/142/110 153/175/117 154/177/148
f 109/154/149 108/152/147 140/176/147 141/178/149
f 123/155/150 122/153/148 154/177/148 155/179/150
f 110/156/151 109/154/149 141/178/149 142/180/151
f 124/157/152 123/155/150 155/179/150 156/181/152
f 111/158/153 110/156/151 142/180/151 143/182/153
f 98/159/154 97/132/101 129/183/155 130/184/154
f 125/160/156 124/157/152 156/181/152 157/185/156
f 112/161/157 111/158/153 143/182/153 144/186/132
f 99/162/158 98/159/154 130/184/154 131/187/158
f 126/163/159 125/160/156 157/185/156 158/188/159
f 113/149/160 112/161/157 144/186/132 145/189/161
f 100/165/162 99/162/158 131/187/158 132/190/162
f 127/166/163 126/163/159 158/188/159 159/191/163
f 114/167/164 113/149/160 145/189/161 146/192/164
f 101/129/165 100/165/162 132/190/162 133/193/165
f 128/131/100 127/166/163 159/191/163 160/194/166
f 115/135/167 114/167/164 146/192/164 147/195/167
f 102/130/168 101/129/165 133/193/165 134/196/168
f 97/132/101 128/131/100 160/194/166 129/183/155
f 116/136/169 115/135/167 147/195/167 148/197/169
f 103/137/170 102/130/168 134/196/168 135/198/170
f 117/138/171 116/136/169 148/197/169 149/199/171
f 104/139/139 103/137/170 135/198/170 136/168/140
f 118/140/143 117/138/171 149/199/171 150/170/143
f 130/184/172 129/183/172 160/194/172 159/191/172 158/188/172 157/185/172 156/181/172 155/179/172 154/177/172 153/175/172 152/173/172 151/171/172 150/170/172 149/199/172 148/197/172 147/195/172 146/192/172 145/189/172 144/186/172 143/182/172 142/180/172 141/178/172 140/176/172 139/174/172 138/172/172 137/169/172 136/168/172 135/198/172 134/196/172 133/193/172 132/190/172 131/187/172
f 167/200/173 168/201/173 176/134/173 175/133/173
f 161/202/174 162/203/174 170/204/174 169/205/174
f 165/206/175 166/164/175 174/144/175 173/143/175
f 163/150/176 164/207/176 172/208/176 171/151/176
f 73/74/111 72/4/111 162/203/111 161/202/111
f 121/142/155 89/84/155 165/206/155 173/143/155
f 81/112/102 80/106/102 164/207/102 163/150/102
f 72/4/166 104/139/166 170/204/166 162/203/166
f 89/84/177 88/80/177 166/164/177 165/206/177
f 65/101/178 96/122/178 168/201/178 167/200/178
f 97/132/141 65/101/141 167/200/141 175/133/141
f 105/146/161 73/74/161 161/202/161 169/205/161
f 80/106/140 112/161/140 172/208/140 164/207/140
f 96/122/145 128/131/145 176/134/145 168/201/145
f 104/139/139 105/146/138 169/205/177 170/204/177
f 112/161/157 113/149/160 171/151/178 172/208/178
