# Blender v2.79 (sub 0) OBJ File: 'kabe_nagai.blend'
# www.blender.org
mtllib kabe_short.mtl
o kabe_mijikai_Cube.005
v -3.968686 0.992286 5.970919
v -3.968686 2.992286 5.970919
v -3.968686 0.992286 3.970919
v -3.968686 2.992286 3.970919
v 4.031314 0.992286 5.970919
v 4.031314 2.992286 5.970919
v 4.031314 0.992286 3.970919
v 4.031314 2.992286 3.970919
v 0.031314 0.992286 3.970919
v 0.031314 2.992286 3.970919
v 0.031314 0.992286 5.970919
v 0.031314 2.992286 5.970919
v -1.968686 0.992286 3.970919
v -1.968686 2.992286 5.970919
v -1.968686 2.992286 3.970919
v -1.968686 0.992286 5.970919
v 2.031314 2.992286 3.970919
v 2.031314 0.992286 5.970919
v 2.031314 0.992286 3.970919
v 2.031314 2.992286 5.970919
vt 0.000000 0.666667
vt 0.000000 0.333333
vt 0.333333 0.333333
vt 0.333333 0.666667
vt 1.000000 0.000000
vt 1.000000 0.500000
vt 0.875000 0.500000
vt 0.875000 0.000000
vt 0.333333 0.000000
vt 0.333333 0.333333
vt 0.000000 0.333333
vt 0.000000 0.000000
vt 0.625000 0.000000
vt 0.625000 0.500000
vt 0.500000 0.500000
vt 0.500000 0.000000
vt 1.000000 0.083333
vt 0.666667 0.083333
vt 0.666667 0.000000
vt 0.750000 0.500000
vt 0.750000 0.625000
vt 0.250000 0.625000
vt 0.250000 0.500000
vt 0.750000 0.875000
vt 0.750000 1.000000
vt 0.250000 1.000000
vt 0.250000 0.875000
vt 0.333333 0.916667
vt 0.333333 1.000000
vt 0.000000 1.000000
vt 0.000000 0.916667
vt 0.375000 0.000000
vt 0.375000 0.500000
vt 0.250000 0.500000
vt 0.250000 0.000000
vt 0.750000 0.000000
vt 0.625000 0.500000
vt 0.625000 0.000000
vt 0.125000 0.000000
vt 0.125000 0.500000
vt 0.000000 0.500000
vt 0.000000 0.000000
vt 0.750000 0.833333
vt 0.750000 0.916667
vt 0.416667 0.916667
vt 0.416667 0.833333
vt 0.750000 0.625000
vt 0.750000 0.750000
vt 0.250000 0.750000
vt 0.250000 0.625000
vt 0.875000 0.000000
vt 0.875000 0.500000
vt 0.750000 0.500000
vt 0.750000 0.000000
vt 0.500000 0.000000
vt 0.500000 0.500000
vt 0.750000 0.750000
vt 0.250000 0.750000
vt 0.333333 0.833333
vt 0.333333 0.916667
vt 0.000000 0.916667
vt 0.000000 0.833333
vt 0.250000 0.000000
vt 0.250000 0.500000
vt 0.125000 0.500000
vt 0.125000 0.000000
vn -1.0000 0.0000 0.0000
vn 0.0000 0.0000 -1.0000
vn 1.0000 0.0000 0.0000
vn 0.0000 0.0000 1.0000
vn 0.0000 -1.0000 0.0000
vn 0.0000 1.0000 0.0000
usemtl stage.002
s off
f 1/1/1 2/2/1 4/3/1 3/4/1
f 19/5/2 17/6/2 8/7/2 7/8/2
f 7/9/3 8/10/3 6/11/3 5/12/3
f 16/13/4 14/14/4 2/15/4 1/16/4
f 19/5/5 7/17/5 5/18/5 18/19/5
f 15/20/6 4/21/6 2/22/6 14/23/6
f 17/24/6 10/25/6 12/26/6 20/27/6
f 13/28/5 9/29/5 11/30/5 16/31/5
f 18/32/4 20/33/4 12/34/4 11/35/4
f 13/36/2 15/20/2 10/37/2 9/38/2
f 3/39/2 4/40/2 15/41/2 13/42/2
f 3/43/5 13/44/5 16/45/5 1/46/5
f 10/47/6 15/48/6 14/49/6 12/50/6
f 11/51/4 12/52/4 14/53/4 16/54/4
f 5/55/4 6/56/4 20/33/4 18/32/4
f 8/57/6 17/24/6 20/27/6 6/58/6
f 9/59/5 19/60/5 18/61/5 11/62/5
f 9/63/2 10/64/2 17/65/2 19/66/2
