# Blender v2.79 (sub 0) OBJ File: ''
# www.blender.org
mtllib tree.mtl
o Cube_Cube.001
v -0.067318 -0.413964 0.067318
v -0.068760 0.117906 0.068795
v -0.067318 -0.413964 -0.067318
v -0.068811 0.117918 -0.068830
v 0.067318 -0.413964 0.067318
v 0.068808 0.117911 0.068780
v 0.067318 -0.413964 -0.067318
v 0.068861 0.117922 -0.068807
v -0.185361 0.158551 0.169881
v -0.177540 0.158777 -0.169310
v 0.168287 0.158295 0.183773
v 0.159603 0.158471 -0.185165
v -0.067318 -0.413964 0.000000
v -0.069896 0.118021 -0.000047
v 0.067318 -0.413964 0.000000
v 0.069981 0.118042 -0.000051
v -0.212823 0.158846 -0.000314
v 0.212786 0.158739 -0.000309
v 0.000000 -0.413964 -0.067318
v -0.000079 0.118028 -0.069922
v 0.000000 -0.413964 0.067318
v -0.000065 0.118027 0.069917
v -0.000507 0.158749 -0.212744
v -0.000415 0.158676 0.212688
v 0.000000 -0.413964 0.000000
v -0.306720 0.654317 0.283683
v -0.294102 0.653164 -0.283046
v 0.283667 0.654598 0.306752
v 0.269542 0.653703 -0.309300
v -0.357746 0.641286 -0.001178
v 0.362216 0.644051 -0.001054
v 0.000518 0.642389 -0.359938
v 0.000829 0.642161 0.359982
v -0.268035 1.112670 0.247393
v -0.257093 1.110744 -0.246901
v 0.246784 1.114007 0.267448
v 0.234526 1.112510 -0.269710
v -0.312873 1.100853 -0.000825
v 0.315543 1.103772 -0.000768
v 0.000387 1.102365 -0.314161
v 0.000618 1.102516 0.314164
v -0.140229 1.605538 0.127514
v -0.134772 1.604769 -0.127432
v 0.125060 1.606204 0.137743
v 0.118919 1.605607 -0.139027
v -0.164294 1.601972 -0.000577
v 0.161375 1.602967 -0.000547
v -0.002122 1.602561 -0.162800
v -0.001964 1.602666 0.162737
v -0.090751 1.691542 0.081150
v -0.087084 1.691465 -0.080960
v 0.078166 1.691672 0.087719
v 0.074094 1.691609 -0.088443
v -0.103947 1.691797 -0.000237
v 0.099519 1.691778 -0.000236
v -0.002578 1.691828 -0.101698
v -0.002514 1.691859 0.101618
v -0.002226 1.694890 -0.000021
vt 0.360086 0.488309
vt 0.123133 0.489204
vt 0.225687 0.258856
vt 0.365206 0.397700
vt 0.455799 0.392101
vt 0.455318 0.155132
vt 0.680638 0.261604
vt 0.540488 0.402190
vt 0.550982 0.486825
vt 0.787941 0.485853
vt 0.685285 0.716241
vt 0.545819 0.577450
vt 0.455231 0.583002
vt 0.455196 0.819936
vt 0.230713 0.713624
vt 0.370608 0.572886
vt 0.455525 0.487558
vt 0.788964 0.106390
vt 0.788334 0.083724
vt 0.793941 0.097621
vt 0.777547 0.113631
vt 0.807882 0.057584
vt 0.838992 0.048531
vt 0.847020 0.060446
vt 0.819024 0.072445
vt 0.841160 0.106617
vt 0.810005 0.115221
vt 0.800441 0.104650
vt 0.831539 0.091003
vt 0.860691 0.057492
vt 0.860691 0.081178
vt 0.851449 0.070624
vt 0.873463 0.048186
vt 0.823210 0.077426
vt 0.798796 0.104397
vt 0.795978 0.097368
vt 0.828439 0.085351
vt 0.734410 0.143477
vt 0.844593 0.064735
vt 0.850474 0.068743
vt 0.919773 0.017163
vt 0.796236 0.096167
vt 0.770539 0.119142
vt 0.882473 0.043093
vt 0.844514 0.063091
vt 0.802552 0.102491
vt 0.822096 0.076269
vt 0.847652 0.072092
vt 0.828898 0.086569
vt 0.807323 0.092262
vt 0.825792 0.083519
vt 0.807946 0.094974
vt 0.802128 0.097660
vt 0.848174 0.066491
vt 0.840841 0.072844
vt 0.823864 0.080395
vt 0.838054 0.071343
vt 0.833469 0.076763
vt 0.836424 0.074294
vt 0.823408 0.080397
vt 0.813574 0.088892
vt 0.825588 0.083871
vt 0.814718 0.089500
vt 0.812358 0.090507
vt 0.833649 0.075437
vt 0.824664 0.082057
vn -1.0000 -0.0038 -0.0080
vn 0.0082 -0.0039 -1.0000
vn 1.0000 -0.0039 0.0086
vn -0.0083 -0.0038 1.0000
vn 0.0000 -1.0000 0.0000
vn -0.2877 -0.9572 0.0328
vn 0.0344 -0.9571 0.2877
vn -0.0533 -0.9537 -0.2959
vn 0.2998 -0.9519 -0.0627
vn 0.2951 -0.9541 0.0511
vn -0.2924 -0.9553 -0.0440
vn 1.0000 -0.0040 -0.0082
vn -1.0000 -0.0038 0.0083
vn 0.0345 -0.9570 -0.2881
vn -0.0500 -0.9544 0.2942
vn 0.0083 -0.0038 1.0000
vn -0.0080 -0.0039 -1.0000
vn -0.2323 -0.2771 0.9324
vn -0.2435 -0.2768 -0.9296
vn -0.9455 -0.2771 0.1708
vn 0.1791 -0.2816 -0.9427
vn 0.1790 -0.2814 0.9428
vn 0.9195 -0.2785 -0.2773
vn 0.9298 -0.2805 0.2384
vn -0.9373 -0.2759 -0.2129
vn -0.9804 0.0960 0.1718
vn 0.9650 0.0981 0.2432
vn -0.9718 0.0953 -0.2159
vn 0.1805 0.0979 0.9787
vn 0.9539 0.0972 -0.2840
vn -0.2363 0.0963 0.9669
vn 0.1808 0.0978 -0.9786
vn -0.2483 0.0960 -0.9639
vn -0.2369 0.2818 -0.9298
vn -0.9456 0.2824 0.1616
vn 0.9292 0.2887 0.2306
vn -0.9379 0.2800 -0.2050
vn 0.1695 0.2882 0.9424
vn 0.9193 0.2856 -0.2706
vn -0.2246 0.2831 0.9324
vn 0.1703 0.2878 -0.9424
vn 0.7985 0.5551 -0.2330
vn -0.1933 0.5517 0.8113
vn 0.1450 0.5581 -0.8170
vn -0.2045 0.5499 -0.8098
vn -0.8235 0.5504 0.1378
vn 0.8054 0.5589 0.1975
vn -0.8181 0.5474 -0.1763
vn 0.1439 0.5588 0.8167
vn 0.0201 0.9996 -0.0197
vn 0.0195 0.9996 0.0188
vn -0.0208 0.9996 -0.0205
vn -0.0200 0.9996 0.0194
usemtl tree
s off
f 13/1/1 14/2/1 4/3/1 3/4/1
f 19/5/2 20/6/2 8/7/2 7/8/2
f 15/9/3 16/10/3 6/11/3 5/12/3
f 21/13/4 22/14/4 2/15/4 1/16/4
f 25/17/5 15/9/5 5/12/5 21/13/5
f 14/18/6 2/19/6 9/20/6 17/21/6
f 22/22/7 6/23/7 11/24/7 24/25/7
f 20/26/8 4/27/8 10/28/8 23/29/8
f 16/30/9 8/31/9 12/32/9 18/33/9
f 6/23/10 16/30/10 18/33/10 11/24/10
f 4/27/11 14/18/11 17/21/11 10/28/11
f 19/5/5 7/8/5 15/9/5 25/17/5
f 7/8/12 8/7/12 16/10/12 15/9/12
f 1/16/13 2/15/13 14/2/13 13/1/13
f 3/4/5 19/5/5 25/17/5 13/1/5
f 8/31/14 20/26/14 23/29/14 12/32/14
f 2/19/15 22/22/15 24/25/15 9/20/15
f 13/1/5 25/17/5 21/13/5 1/16/5
f 5/12/16 6/11/16 22/14/16 21/13/16
f 3/4/17 4/3/17 20/6/17 19/5/17
f 9/20/18 24/25/18 33/34/18 26/35/18
f 23/29/19 10/28/19 27/36/19 32/37/19
f 17/21/20 9/20/20 26/35/20 30/38/20
f 12/32/21 23/29/21 32/37/21 29/39/21
f 24/25/22 11/24/22 28/40/22 33/34/22
f 18/33/23 12/32/23 29/39/23 31/41/23
f 11/24/24 18/33/24 31/41/24 28/40/24
f 10/28/25 17/21/25 30/38/25 27/36/25
f 30/38/26 26/35/26 34/42/26 38/43/26
f 28/40/27 31/41/27 39/44/27 36/45/27
f 27/36/28 30/38/28 38/43/28 35/46/28
f 33/34/29 28/40/29 36/45/29 41/47/29
f 31/41/30 29/39/30 37/48/30 39/44/30
f 26/35/31 33/34/31 41/47/31 34/42/31
f 29/39/32 32/37/32 40/49/32 37/48/32
f 32/37/33 27/36/33 35/46/33 40/49/33
f 40/49/34 35/46/34 43/50/34 48/51/34
f 38/43/35 34/42/35 42/52/35 46/53/35
f 36/45/36 39/44/36 47/54/36 44/55/36
f 35/46/37 38/43/37 46/53/37 43/50/37
f 41/47/38 36/45/38 44/55/38 49/56/38
f 39/44/39 37/48/39 45/57/39 47/54/39
f 34/42/40 41/47/40 49/56/40 42/52/40
f 37/48/41 40/49/41 48/51/41 45/57/41
f 47/54/42 45/57/42 53/58/42 55/59/42
f 42/52/43 49/56/43 57/60/43 50/61/43
f 45/57/44 48/51/44 56/62/44 53/58/44
f 48/51/45 43/50/45 51/63/45 56/62/45
f 46/53/46 42/52/46 50/61/46 54/64/46
f 44/55/47 47/54/47 55/59/47 52/65/47
f 43/50/48 46/53/48 54/64/48 51/63/48
f 49/56/49 44/55/49 52/65/49 57/60/49
f 56/62/50 58/66/50 55/59/50 53/58/50
f 52/65/51 55/59/51 58/66/51 57/60/51
f 54/64/52 58/66/52 56/62/52 51/63/52
f 57/60/53 58/66/53 54/64/53 50/61/53
