# Blender v2.79 (sub 0) OBJ File: ''
# www.blender.org
mtllib angelWakka.mtl
o Torus
v 0.275177 0.000552 -0.022089
v 0.272599 0.009586 -0.016044
v 0.266778 0.015358 -0.017848
v 0.246453 0.014687 0.013882
v 0.231789 0.008944 -0.076783
v 0.238792 -0.001892 -0.025248
v 0.232098 -0.009502 -0.076443
v 0.246244 -0.015191 -0.036761
v 0.251966 -0.018370 0.033801
v 0.255462 -0.017632 -0.069578
v 0.272564 -0.007836 0.001918
v 0.214071 0.018173 -0.139148
v 0.211768 0.014309 -0.127795
v 0.222076 -0.018016 -0.128659
v 0.250779 -0.011548 -0.102906
v 0.236199 -0.001653 -0.139467
v 0.239073 0.016316 -0.121180
v 0.180441 -0.001440 -0.156459
v 0.146822 -0.014775 -0.204758
v 0.179306 0.010663 -0.204651
v 0.190209 -0.004708 -0.199321
v 0.144518 0.017222 -0.221084
v 0.138661 0.013281 -0.200062
v 0.123198 -0.006727 -0.207365
v 0.065869 0.013567 -0.240381
v 0.184854 -0.020415 -0.182133
v 0.103011 -0.002267 -0.254611
v 0.025892 0.020128 -0.257009
v 0.087321 0.002809 -0.221307
v 0.088404 -0.015281 -0.252288
v 0.072829 -0.010561 -0.265160
v 0.054966 0.010484 -0.267533
v 0.001152 0.011159 -0.243865
v -0.018220 0.001537 -0.275540
v -0.020275 -0.001152 -0.237760
v 0.003903 -0.010216 -0.241094
v -0.018294 -0.016677 -0.249197
v -0.094123 -0.018472 -0.244748
v -0.089509 0.017739 -0.252116
v -0.082662 -0.018257 -0.253549
v -0.072883 0.014032 -0.259566
v -0.084858 -0.015424 -0.256331
v -0.124251 0.022758 -0.227138
v -0.123623 -0.012044 -0.210708
v -0.154269 0.001473 -0.229045
v -0.117615 0.003191 -0.204917
v -0.188921 -0.021205 -0.179990
v -0.178957 0.008916 -0.206286
v -0.203302 0.018649 -0.154747
v -0.181837 0.008911 -0.158288
v -0.201582 -0.011933 -0.182589
v -0.231998 0.016081 -0.134944
v -0.216431 0.001878 -0.107192
v -0.216852 -0.016823 -0.151645
v -0.246067 0.001777 -0.124551
v -0.242343 0.019300 -0.084798
v -0.221283 -0.014319 -0.102624
v -0.244382 -0.018400 -0.067608
v -0.239935 0.008589 -0.032624
v -0.267621 -0.010806 -0.053777
v -0.269176 0.010638 -0.034996
v -0.265233 0.017730 0.004213
v -0.249638 -0.015794 -0.000329
v -0.263418 -0.019550 -0.001463
v -0.274751 0.002196 -0.004013
v -0.241915 0.018948 0.084928
v -0.240193 -0.008567 0.020704
v -0.234338 0.005430 0.043905
v -0.257718 0.009830 0.090556
v -0.232517 0.013430 0.073553
v -0.216802 -0.019791 0.144256
v -0.253457 -0.010189 0.106097
v -0.248845 -0.002389 0.119750
v -0.205948 0.009603 0.131772
v -0.219818 0.016938 0.146214
v -0.201882 -0.010894 0.128159
v -0.178256 0.002670 0.158841
v -0.192809 0.009962 0.190795
v -0.157152 0.020422 0.203258
v -0.166332 -0.000520 0.218434
v -0.119453 -0.013866 0.215560
v -0.068653 -0.019230 0.250225
v -0.154679 -0.008479 0.225735
v -0.101995 0.016762 0.247071
v -0.064841 0.018439 0.248882
v -0.105014 -0.008395 0.216950
v -0.104313 -0.019103 0.241752
v -0.103074 0.013484 0.249717
v -0.049016 0.010272 0.240458
v -0.081665 0.000622 0.224189
v -0.051646 -0.000935 0.271539
v -0.012978 0.014743 0.245984
v -0.039805 -0.008357 0.269715
v 0.022136 0.012248 0.270802
v 0.001609 -0.003377 0.235504
v 0.040047 -0.021622 0.254561
v 0.055519 0.017050 0.258443
v 0.042985 -0.015777 0.264625
v 0.094175 -0.000119 0.259488
v 0.098593 -0.013025 0.223742
v 0.125172 0.018036 0.222061
v 0.107259 0.014908 0.222596
v 0.137031 0.007008 0.200305
v 0.102756 0.001592 0.215721
v 0.149251 0.012549 0.226570
v 0.171374 -0.017977 0.192065
v 0.165447 -0.016441 0.209951
v 0.161995 -0.014303 0.219544
v 0.176143 0.017510 0.196118
v 0.203228 -0.014719 0.149390
v 0.209012 0.000218 0.179952
v 0.203325 0.014064 0.137157
v 0.205094 0.003477 0.124087
v 0.219100 -0.008697 0.106344
v 0.243155 0.010228 0.124346
v 0.243214 0.020242 0.085012
v 0.227741 0.007854 0.077911
v 0.252166 -0.017044 0.079340
v 0.256646 -0.007382 0.099527
vn -0.3837 0.9206 0.0726
vn 0.9390 -0.2899 -0.1849
vn 0.7649 -0.6295 -0.1367
vn 0.7204 0.6679 -0.1870
vn 0.0835 0.9964 -0.0131
vn -0.4283 -0.8840 0.1874
vn 0.7424 0.3231 -0.5869
vn 0.2038 0.9616 -0.1841
vn -0.7097 -0.4759 0.5194
vn -0.3713 0.8689 0.3273
vn -0.3370 -0.9046 0.2611
vn -0.2781 -0.9313 0.2354
vn 0.5352 0.0883 -0.8401
vn 0.0376 0.9983 -0.0435
vn -0.3535 -0.7553 0.5519
vn -0.4045 -0.7438 0.5321
vn 0.3530 0.6210 -0.6998
vn 0.4457 0.1547 -0.8817
vn -0.0415 0.9958 0.0819
vn -0.2673 -0.4346 0.8601
vn 0.1461 -0.3765 -0.9148
vn 0.0136 -0.9957 -0.0916
vn 0.0189 -0.9311 -0.3643
vn -0.0034 0.8923 -0.4515
vn -0.0177 -0.7076 -0.7064
vn -0.0001 -0.8220 0.5695
vn 0.1117 -0.9033 0.4143
vn -0.3167 -0.2005 -0.9271
vn 0.3155 -0.0801 0.9456
vn 0.2707 -0.4335 0.8596
vn -0.0366 -0.9947 -0.0964
vn -0.3505 -0.7804 -0.5178
vn -0.4055 -0.6812 -0.6095
vn 0.6200 -0.4803 0.6204
vn -0.1982 -0.9484 -0.2477
vn -0.6783 -0.4316 -0.5946
vn -0.1224 0.9894 -0.0775
vn 0.7696 -0.0294 0.6378
vn -0.7481 0.3091 -0.5872
vn -0.0689 0.9959 -0.0589
vn -0.0368 -0.9988 -0.0308
vn 0.5173 -0.8223 0.2371
vn -0.8856 -0.1018 -0.4531
vn -0.6327 -0.7060 -0.3182
vn -0.7758 0.5762 -0.2572
vn -0.1161 0.9925 -0.0395
vn 0.0331 -0.9986 0.0413
vn -0.0351 0.9994 0.0073
vn -0.3537 -0.9268 -0.1265
vn -0.9532 -0.2005 -0.2261
vn -0.0203 -0.9998 -0.0020
vn -0.9159 0.3364 -0.2191
vn 0.8371 -0.5355 0.1118
vn -0.9946 0.0495 0.0911
vn 0.9934 -0.0939 -0.0651
vn 0.2125 0.9769 -0.0212
vn -0.9950 0.0481 0.0880
vn 0.2762 0.9590 -0.0630
vn 0.3340 -0.9405 -0.0633
vn -0.9571 0.2021 0.2078
vn 0.9147 -0.2317 -0.3311
vn 0.4113 -0.9038 -0.1184
vn 0.3922 0.9041 -0.1696
vn 0.7860 -0.4757 -0.3949
vn -0.8196 0.2166 0.5304
vn 0.2860 0.9334 -0.2165
vn 0.6507 -0.6781 -0.3416
vn -0.7449 -0.2278 0.6271
vn -0.2533 0.9205 0.2975
vn 0.3602 -0.8569 -0.3688
vn -0.2988 -0.8874 0.3510
vn -0.4590 0.5907 0.6637
vn -0.4357 0.6478 0.6249
vn 0.1806 0.9468 -0.2665
vn 0.4391 -0.6009 -0.6679
vn -0.4172 -0.1259 0.9000
vn -0.3435 -0.2747 0.8981
vn -0.2788 -0.6242 0.7299
vn 0.1273 0.7198 -0.6824
vn -0.0513 -0.8869 0.4591
vn -0.1512 -0.4421 -0.8841
vn 0.3248 0.1469 0.9343
vn 0.2726 -0.6622 0.6980
vn -0.0132 -0.9962 -0.0859
vn -0.1743 0.9630 -0.2055
vn -0.1519 -0.9696 -0.1917
vn 0.4975 0.7475 0.4401
vn 0.7308 0.1399 0.6681
vn 0.0329 0.9985 0.0444
vn -0.6139 -0.5777 -0.5380
vn -0.3208 -0.9152 -0.2441
vn 0.5612 -0.7242 0.4008
vn 0.8556 -0.0678 0.5132
vn 0.0518 -0.9982 0.0288
vn -0.8317 -0.4714 -0.2934
vn -0.4389 0.8889 -0.1310
vn -0.7475 -0.6481 -0.1454
vn -0.7816 -0.6233 -0.0248
vn -0.5808 0.8128 -0.0449
vn -0.3265 -0.9450 -0.0191
vn 0.1059 0.9941 -0.0229
vn 0.9207 0.2556 -0.2948
vn -0.5835 -0.7991 0.1450
vn 0.0228 -0.9997 -0.0064
vn 0.5094 -0.7926 -0.3351
vn 0.9260 0.2134 -0.3115
vn -0.5398 0.8060 0.2428
vn -0.4911 0.8204 0.2927
vn -0.1003 -0.9933 0.0569
vn 0.7167 0.4378 -0.5428
vn -0.2779 0.9487 0.1509
vn 0.3869 -0.6962 -0.6047
vn 0.5951 -0.6837 -0.4224
vn 0.3036 0.9110 -0.2791
vn -0.1864 0.9668 0.1748
vn -0.2169 0.9367 0.2748
vn -0.0268 -0.9988 0.0413
vn -0.3926 0.6893 0.6089
vn -0.2103 -0.1261 0.9695
vn 0.4049 -0.6262 -0.6663
vn 0.1476 0.8978 -0.4149
vn -0.1404 0.6252 0.7677
vn -0.2404 -0.3644 0.8997
vn -0.0484 0.9784 0.2011
vn 0.4171 -0.7544 -0.5068
vn 0.1630 0.4936 -0.8543
vn -0.0453 0.6710 -0.7401
vn 0.0174 -0.9998 -0.0018
vn -0.0201 0.7530 -0.6578
vn -0.0166 -0.7202 -0.6936
vn 0.0631 0.9708 0.2315
vn 0.2215 0.2435 0.9443
vn 0.1542 0.7639 0.6266
vn 0.3213 0.4690 0.8227
vn 0.0232 -0.9997 -0.0082
vn -0.3172 0.1954 -0.9280
vn -0.3376 0.7230 -0.6027
vn -0.4350 -0.1763 -0.8830
vn -0.0222 0.9991 -0.0353
vn 0.4400 0.7351 0.5158
vn -0.2273 0.9376 -0.2632
vn -0.3929 0.7924 -0.4666
vn 0.3273 0.8805 0.3428
vn -0.5911 -0.2227 -0.7752
vn 0.7419 -0.0333 0.6697
vn 0.2177 -0.9599 0.1765
vn -0.7063 0.3391 -0.6215
vn 0.3649 0.9152 0.1710
vn -0.4427 0.8891 -0.1163
vn 0.5822 0.7944 0.1728
vn -0.0308 0.9995 -0.0062
vn 0.9573 -0.2421 0.1581
vn 0.4395 -0.8916 0.1090
vn 0.3202 0.9472 0.0157
vn -0.6987 0.7122 0.0683
vn 0.5068 0.8621 0.0005
vn 0.0259 -0.9996 -0.0099
vn -0.7413 -0.6677 0.0683
vn -0.9528 -0.2363 0.1907
vn -0.3439 0.9319 0.1152
vn -0.5475 -0.8192 0.1705
vn 0.9316 0.1552 -0.3288
vn -0.6177 -0.7782 0.1130
vn -0.3611 -0.9255 0.1140
vn -0.6921 0.5664 0.4474
vn -0.6551 -0.5154 0.5524
vn -0.7159 -0.3632 0.5963
vn -0.0434 0.9978 0.0509
vn 0.4601 -0.5771 -0.6748
vn -0.0427 -0.9982 0.0430
vn 0.5935 0.4601 -0.6604
vn -0.0072 -0.9999 0.0154
vn 0.1830 -0.4615 -0.8681
vn -0.4099 0.2134 0.8868
vn 0.0658 0.9938 -0.0899
vn 0.1934 -0.6460 -0.7384
vn -0.1148 0.6827 0.7216
vn -0.1204 0.6472 0.7527
vn 0.1425 0.3685 -0.9186
vn 0.0752 0.0149 0.9971
vn -0.0167 -0.9915 -0.1290
vn -0.0238 0.9519 0.3056
vn -0.0642 0.4750 0.8776
vn -0.0684 0.9509 0.3019
vn 0.0781 -0.3859 0.9192
vn -0.1464 -0.8453 -0.5139
vn -0.1457 -0.4139 -0.8986
vn 0.0081 0.9991 0.0427
vn -0.0720 0.9173 -0.3917
vn -0.1633 -0.5786 -0.7991
vn 0.0246 -0.9970 0.0737
vn 0.2266 0.7198 0.6561
vn 0.0181 0.9952 0.0960
vn -0.6843 0.0132 -0.7291
vn 0.1078 -0.9614 0.2530
vn 0.1404 0.9500 0.2788
vn 0.4117 0.4366 0.8000
vn -0.4171 0.6805 -0.6025
vn 0.5391 -0.3248 0.7771
vn 0.5276 0.3730 0.7633
vn -0.6171 -0.3782 -0.6901
vn -0.2743 0.9177 -0.2875
vn 0.4614 -0.8301 0.3130
vn 0.3471 0.9087 0.2319
vn -0.3132 0.9224 -0.2258
vn 0.2343 -0.9589 0.1600
vn 0.9202 0.3485 0.1782
vn -0.3112 0.9366 -0.1608
vn -0.2626 0.9610 -0.0870
vn 0.7423 0.6537 0.1469
vn -0.7092 0.6853 -0.1656
vn -0.1506 -0.9881 -0.0323
vn 0.7697 -0.6253 0.1284
vn 0.9760 0.1495 0.1585
vn -0.3508 0.9364 -0.0026
vn 0.6883 -0.7252 0.0181
vn 0.4537 -0.8911 0.0136
usemtl None
s off
f 8//1 14//1 9//1
f 10//2 15//2 11//2
f 15//3 1//3 11//3
f 17//4 3//4 2//4
f 17//5 12//5 3//5
f 18//6 7//6 6//6
f 21//7 20//7 16//7
f 22//8 12//8 17//8
f 23//9 18//9 5//9
f 18//10 24//10 7//10
f 24//11 19//11 7//11
f 19//12 26//12 14//12
f 27//13 20//13 21//13
f 22//14 28//14 12//14
f 28//15 25//15 12//15
f 29//16 24//16 18//16
f 27//17 32//17 20//17
f 32//18 22//18 20//18
f 25//19 33//19 23//19
f 33//20 29//20 23//20
f 34//21 32//21 27//21
f 38//22 30//22 26//22
f 40//23 31//23 30//23
f 41//24 39//24 32//24
f 40//25 42//25 31//25
f 43//26 33//26 25//26
f 44//27 37//27 36//27
f 45//28 41//28 34//28
f 46//29 35//29 33//29
f 46//30 44//30 35//30
f 49//31 43//31 28//31
f 40//32 51//32 42//32
f 51//33 45//33 42//33
f 53//34 44//34 46//34
f 54//35 51//35 40//35
f 55//36 48//36 45//36
f 49//37 56//37 43//37
f 56//38 50//38 43//38
f 55//39 52//39 48//39
f 47//40 58//40 38//40
f 58//41 54//41 38//41
f 59//42 53//42 50//42
f 54//43 60//43 51//43
f 60//44 55//44 51//44
f 55//45 61//45 52//45
f 62//46 49//46 52//46
f 63//47 58//47 47//47
f 58//48 64//48 54//48
f 64//49 60//49 54//49
f 65//50 61//50 55//50
f 66//51 56//51 49//51
f 60//52 65//52 55//52
f 68//53 67//53 53//53
f 69//54 62//54 61//54
f 70//55 59//55 56//55
f 63//56 71//56 58//56
f 64//57 72//57 60//57
f 70//58 74//58 59//58
f 74//59 68//59 59//59
f 72//60 73//60 65//60
f 67//61 76//61 63//61
f 76//62 71//62 63//62
f 74//63 77//63 68//63
f 77//64 76//64 68//64
f 78//65 75//65 69//65
f 66//66 79//66 70//66
f 79//67 74//67 70//67
f 80//68 78//68 73//68
f 78//69 84//69 75//69
f 86//70 81//70 76//70
f 87//71 83//71 71//71
f 80//72 88//72 78//72
f 88//73 84//73 78//73
f 79//74 89//74 74//74
f 90//75 86//75 77//75
f 91//76 88//76 80//76
f 87//77 93//77 83//77
f 93//78 91//78 83//78
f 89//79 95//79 90//79
f 98//80 93//80 87//80
f 104//81 100//81 95//81
f 105//82 97//82 94//82
f 108//83 99//83 98//83
f 110//84 106//84 96//84
f 101//85 112//85 102//85
f 114//86 110//86 100//86
f 111//87 115//87 105//87
f 115//88 109//88 105//88
f 109//89 116//89 101//89
f 116//90 112//90 101//90
f 117//91 113//91 103//91
f 119//92 111//92 108//92
f 119//93 115//93 111//93
f 9//94 118//94 106//94
f 4//95 117//95 112//95
f 117//96 6//96 113//96
f 6//97 114//97 113//97
f 5//98 6//98 117//98
f 6//99 7//99 114//99
f 7//100 8//100 114//100
f 3//101 12//101 116//101
f 17//102 2//102 1//102 16//102
f 4//103 13//103 5//103
f 9//104 14//104 10//104
f 15//105 10//105 26//105 21//105
f 15//106 16//106 1//106
f 5//107 18//107 6//107
f 7//108 19//108 8//108
f 8//109 19//109 14//109
f 16//110 20//110 17//110
f 14//111 26//111 10//111
f 21//112 26//112 30//112 31//112
f 15//113 21//113 16//113
f 20//114 22//114 17//114
f 13//115 23//115 5//115
f 12//116 25//116 13//116
f 13//117 25//117 23//117
f 23//118 29//118 18//118
f 36//119 24//119 29//119 35//119
f 31//120 27//120 21//120
f 32//121 28//121 22//121
f 33//122 35//122 29//122
f 19//123 24//123 36//123 37//123
f 38//124 26//124 19//124 37//124
f 82//125 71//125 76//125 81//125
f 31//126 34//126 27//126
f 32//127 39//127 28//127
f 38//128 40//128 30//128
f 34//129 41//129 32//129
f 31//130 42//130 34//130
f 28//131 43//131 25//131
f 35//132 44//132 36//132
f 43//133 46//133 33//133
f 44//134 47//134 37//134
f 37//135 47//135 38//135
f 42//136 45//136 34//136
f 45//137 48//137 41//137
f 41//138 48//138 39//138
f 39//139 49//139 28//139
f 43//140 50//140 46//140
f 48//141 52//141 39//141
f 39//142 52//142 49//142
f 50//143 53//143 46//143
f 38//144 54//144 40//144
f 53//145 57//145 44//145
f 44//146 57//146 47//146
f 51//147 55//147 45//147
f 56//148 59//148 50//148
f 61//149 62//149 52//149
f 57//150 63//150 47//150
f 62//151 66//151 49//151
f 53//152 67//152 57//152
f 57//153 67//153 63//153
f 59//154 68//154 53//154
f 65//155 69//155 61//155
f 66//156 70//156 56//156
f 58//157 71//157 64//157
f 60//158 72//158 65//158
f 65//159 73//159 69//159
f 69//160 75//160 62//160
f 62//161 75//161 66//161
f 68//162 76//162 67//162
f 4//163 116//163 12//163 13//163
f 64//164 71//164 72//164
f 73//165 78//165 69//165
f 73//166 72//166 83//166 80//166
f 71//167 83//167 72//167
f 66//168 75//168 84//168 85//168
f 77//169 74//169 89//169 90//169
f 66//170 85//170 79//170
f 77//171 86//171 76//171
f 82//172 87//172 71//172
f 81//173 86//173 95//173 96//173
f 83//174 91//174 80//174
f 85//175 92//175 79//175
f 79//176 92//176 89//176
f 91//177 94//177 88//177
f 88//178 94//178 84//178
f 90//179 95//179 86//179
f 91//180 93//180 98//180 99//180
f 81//181 96//181 82//181
f 94//182 97//182 84//182
f 84//183 97//183 85//183
f 82//184 98//184 87//184
f 91//185 99//185 94//185
f 95//186 100//186 96//186
f 92//187 85//187 101//187 102//187
f 97//188 101//188 85//188
f 89//189 92//189 102//189 103//189
f 104//190 95//190 89//190 103//190
f 107//191 98//191 82//191 106//191
f 99//192 105//192 94//192
f 96//193 106//193 82//193
f 100//194 104//194 113//194 114//194
f 98//195 107//195 108//195
f 105//196 109//196 97//196
f 97//197 109//197 101//197
f 100//198 110//198 96//198
f 99//199 111//199 105//199
f 108//200 111//200 99//200
f 102//201 112//201 103//201
f 103//202 113//202 104//202
f 119//203 108//203 107//203 118//203
f 115//204 116//204 109//204
f 112//205 117//205 103//205
f 106//206 118//206 107//206
f 2//207 115//207 119//207 1//207
f 110//208 9//208 106//208
f 116//209 4//209 112//209
f 3//210 116//210 115//210 2//210
f 114//211 8//211 110//211
f 110//212 8//212 9//212
f 118//213 11//213 119//213
f 11//214 1//214 119//214
f 4//215 5//215 117//215
f 9//216 10//216 118//216
f 118//217 10//217 11//217
