# Blender v2.79 (sub 0) OBJ File: 'bou.blend'
# www.blender.org
mtllib bou.mtl
o Cube
v 0.032563 -0.370391 -0.082524
v 0.032563 -0.370391 -0.017399
v -0.032563 -0.370391 -0.017399
v -0.032563 -0.370391 -0.082524
v 0.037060 0.158810 -0.020606
v 0.025321 0.186248 0.037279
v -0.037060 0.194733 0.020606
v -0.025321 0.167295 -0.037279
v -0.017880 0.453819 -0.106956
v -0.036792 0.423063 -0.052755
v -0.099026 0.429423 -0.070861
v -0.080114 0.460179 -0.125063
v 0.028361 0.748581 -0.006744
v 0.009449 0.717825 0.047457
v -0.052786 0.724184 0.029351
v -0.033874 0.754940 -0.024850
vn 0.0000 -1.0000 -0.0000
vn -0.2234 0.2984 0.9279
vn 0.9953 -0.0079 0.0967
vn -0.1346 -0.0830 0.9874
vn -0.9952 0.0098 -0.0972
vn 0.1354 0.0975 -0.9860
vn 0.9212 0.2891 0.2605
vn -0.9203 -0.2921 -0.2603
vn 0.2351 -0.2354 -0.9430
vn -0.2943 -0.2659 0.9180
vn 0.9531 -0.2201 0.2077
vn -0.9531 0.2201 -0.2077
vn 0.2943 0.2659 -0.9180
vn -0.0500 0.8760 0.4796
usemtl bou
s off
f 1//1 2//1 3//1 4//1
f 7//2 6//2 10//2 11//2
f 1//3 5//3 6//3 2//3
f 2//4 6//4 7//4 3//4
f 3//5 7//5 8//5 4//5
f 5//6 1//6 4//6 8//6
f 6//7 5//7 9//7 10//7
f 8//8 7//8 11//8 12//8
f 5//9 8//9 12//9 9//9
f 11//10 10//10 14//10 15//10
f 10//11 9//11 13//11 14//11
f 12//12 11//12 15//12 16//12
f 9//13 12//13 16//13 13//13
f 13//14 16//14 15//14 14//14
