# Blender v2.82 (sub 7) OBJ File: 'goal2.blend'
# www.blender.org
mtllib goal.mtl
o Cube
v 3.553153 -0.156238 -0.156238
v 3.553153 -0.156238 0.156238
v 3.345789 -0.156238 0.156238
v 3.345789 -0.156238 -0.156238
v 3.553153 0.156238 -0.156238
v 3.553153 0.156238 0.156238
v 3.345789 0.156238 0.156238
v 3.345789 0.156238 -0.156238
v 3.553153 3.699818 -0.156238
v 3.553153 3.699818 0.156238
v 3.345789 3.699818 -0.156238
v 3.345789 3.699818 0.156238
v 3.553153 4.035428 -0.156238
v 3.553153 4.035428 0.156238
v 3.345789 4.035428 -0.156238
v 3.345789 4.035428 0.156238
v 3.553153 2.646566 -3.862890
v 3.345789 2.646566 -3.862890
v 3.553153 2.982176 -3.862890
v 3.345789 2.982176 -3.862890
v 3.553153 2.544602 -4.175558
v 3.345789 2.544602 -4.175558
v 3.553153 2.880212 -4.175558
v 3.345789 2.880212 -4.175558
v 3.553153 -0.096860 -3.862890
v 3.345789 -0.096860 -3.862890
v 3.553153 -0.096860 -4.175558
v 3.345789 -0.096860 -4.175558
v -3.553153 -0.156238 -0.156238
v -3.553153 -0.156238 0.156238
v -3.345789 -0.156238 0.156238
v -3.345789 -0.156238 -0.156238
v -3.553153 0.156238 -0.156238
v -3.553153 0.156238 0.156238
v -3.345789 0.156238 0.156238
v -3.345789 0.156238 -0.156238
v -3.553153 3.699818 -0.156238
v -3.553153 3.699818 0.156238
v -3.345789 3.699818 -0.156238
v -3.345789 3.699818 0.156238
v -3.553153 4.035428 -0.156238
v -3.553153 4.035428 0.156238
v -3.345789 4.035428 -0.156238
v -3.345789 4.035428 0.156238
v -3.553153 2.646566 -3.862890
v -3.345789 2.646566 -3.862890
v -3.553153 2.982176 -3.862890
v -3.345789 2.982176 -3.862890
v -3.553153 2.544602 -4.175558
v -3.345789 2.544602 -4.175558
v -3.553153 2.880212 -4.175558
v -3.345789 2.880212 -4.175558
v 0.000000 3.699818 -0.156238
v 0.000000 3.699818 0.156238
v 0.000000 4.035428 -0.156238
v 0.000000 4.035428 0.156238
v 0.000000 2.646566 -3.862890
v 0.000000 2.982176 -3.862890
v 0.000000 2.544602 -4.175558
v 0.000000 2.880212 -4.175558
v -3.553153 -0.096860 -3.862890
v -3.345789 -0.096860 -3.862890
v -3.553153 -0.096860 -4.175558
v -3.345789 -0.096860 -4.175558
v 0.000000 -0.079537 -4.175558
vn 0.0000 -1.0000 0.0000
vn -0.0000 0.0000 1.0000
vn 1.0000 -0.0000 0.0000
vn -1.0000 -0.0000 0.0000
vn 0.0000 0.0000 -1.0000
vn 0.0000 1.0000 0.0000
vn 0.0000 0.9619 -0.2733
vn 0.0000 -0.9619 0.2733
vn 0.0000 0.9507 -0.3100
vn 0.0000 -0.9507 0.3100
usemtl goal
s off
f 1//1 2//1 3//1 4//1
f 7//2 6//2 10//2 12//2
f 1//3 5//3 6//3 2//3
f 2//2 6//2 7//2 3//2
f 3//4 7//4 8//4 4//4
f 5//5 1//5 4//5 8//5
f 12//2 10//2 14//2 16//2
f 6//3 5//3 9//3 10//3
f 8//4 7//4 12//4 11//4
f 5//5 8//5 11//5 9//5
f 13//6 15//6 16//6 14//6
f 10//3 9//3 13//3 14//3
f 15//7 13//7 19//7 20//7
f 11//4 15//4 20//4 18//4
f 13//3 9//3 17//3 19//3
f 9//8 11//8 18//8 17//8
f 19//3 17//3 21//3 23//3
f 22//5 21//5 27//5 28//5
f 22//5 59//5 60//5 24//5
f 20//9 19//9 23//9 24//9
f 20//9 24//9 60//9 58//9
f 15//5 11//5 53//5 55//5
f 12//2 16//2 56//2 54//2
f 16//6 15//6 55//6 56//6
f 11//1 12//1 54//1 53//1
f 18//2 20//2 58//2 57//2
f 22//10 18//10 57//10 59//10
f 22//5 24//5 23//5 21//5
f 21//3 17//3 25//3 27//3
f 17//2 18//2 26//2 25//2
f 18//4 22//4 28//4 26//4
f 26//1 28//1 27//1 25//1
f 29//1 32//1 31//1 30//1
f 35//2 40//2 38//2 34//2
f 29//4 30//4 34//4 33//4
f 30//2 31//2 35//2 34//2
f 31//3 32//3 36//3 35//3
f 33//5 36//5 32//5 29//5
f 40//2 44//2 42//2 38//2
f 34//4 38//4 37//4 33//4
f 36//3 39//3 40//3 35//3
f 33//5 37//5 39//5 36//5
f 41//6 42//6 44//6 43//6
f 38//4 42//4 41//4 37//4
f 43//7 48//7 47//7 41//7
f 39//3 46//3 48//3 43//3
f 41//4 47//4 45//4 37//4
f 37//8 45//8 46//8 39//8
f 47//4 51//4 49//4 45//4
f 50//5 64//5 63//5 49//5
f 50//5 52//5 60//5 59//5
f 48//9 52//9 51//9 47//9
f 48//9 58//9 60//9 52//9
f 43//5 55//5 53//5 39//5
f 40//2 54//2 56//2 44//2
f 44//6 56//6 55//6 43//6
f 39//1 53//1 54//1 40//1
f 46//2 57//2 58//2 48//2
f 50//10 59//10 57//10 46//10
f 50//5 49//5 51//5 52//5
f 49//4 63//4 61//4 45//4
f 45//2 61//2 62//2 46//2
f 46//3 62//3 64//3 50//3
f 62//1 61//1 63//1 64//1
usemtl grass
f 57//7 53//7 11//7 18//7
f 18//3 11//3 8//3 26//3
f 59//5 22//5 28//5 65//5
f 57//7 46//7 39//7 53//7
f 46//4 62//4 36//4 39//4
f 59//5 65//5 64//5 50//5
