# Blender v2.79 (sub 0) OBJ File: ''
# www.blender.org
mtllib pikumin.mtl
o Cube
v 0.076528 -0.076528 -0.076528
v 0.076528 -0.076528 0.076528
v -0.076528 -0.076528 0.076528
v -0.076528 -0.076528 -0.076528
v 0.076528 0.076528 -0.076528
v 0.076528 0.076528 0.076528
v -0.076528 0.076528 0.076528
v -0.076528 0.076528 -0.076528
v 0.055373 0.270748 -0.140669
v 0.055373 0.327116 -0.045341
v -0.055373 0.327116 -0.045341
v -0.055373 0.270748 -0.140669
v 0.045621 0.449357 -0.257136
v 0.045621 0.528614 -0.211933
v -0.045621 0.528614 -0.211933
v -0.045621 0.449357 -0.257136
v 0.011427 0.588033 -0.448331
v 0.011427 0.610758 -0.445906
v -0.011427 0.610758 -0.445906
v -0.011427 0.588033 -0.448331
v 0.067200 0.600909 -0.642506
v 0.067200 0.665222 -0.617078
v -0.067200 0.665222 -0.617078
v -0.067200 0.600909 -0.642506
v 0.032261 0.670004 -0.834176
v 0.032261 0.700879 -0.821969
v -0.032261 0.700879 -0.821969
v -0.032261 0.670004 -0.834176
vn 0.5773 -0.5773 -0.5773
vn 0.5773 -0.5773 0.5773
vn -0.5773 -0.5773 0.5773
vn -0.5773 -0.5773 -0.5773
vn 0.7530 -0.0648 -0.6548
vn 0.6684 0.1868 0.7200
vn -0.6684 0.1868 0.7200
vn -0.7530 -0.0648 -0.6548
vn -0.6716 0.4331 0.6011
vn -0.7308 -0.2490 -0.6355
vn 0.7308 -0.2490 -0.6355
vn 0.6716 0.4331 0.6011
vn -0.6639 0.6409 0.3853
vn -0.7494 -0.4056 -0.5234
vn 0.7494 -0.4056 -0.5234
vn 0.6639 0.6409 0.3853
vn 0.6399 0.7044 0.3072
vn -0.6399 0.7044 0.3072
vn 0.7288 -0.6571 -0.1925
vn -0.7288 -0.6571 -0.1925
vn -0.7366 0.6402 0.2177
vn -0.7245 -0.6788 -0.1194
vn 0.7245 -0.6788 -0.1194
vn 0.7366 0.6402 0.2177
vn -0.5210 -0.3308 -0.7868
vn 0.5210 -0.3308 -0.7868
vn 0.5294 0.7272 -0.4369
vn -0.5294 0.7272 -0.4369
usemtl Material
s 1
f 1//1 2//2 3//3 4//4
f 1//1 5//5 6//6 2//2
f 2//2 6//6 7//7 3//3
f 3//3 7//7 8//8 4//4
f 5//5 1//1 4//4 8//8
f 8//8 7//7 11//9 12//10
f 5//5 8//8 12//10 9//11
f 7//7 6//6 10//12 11//9
f 6//6 5//5 9//11 10//12
f 12//10 11//9 15//13 16//14
f 9//11 12//10 16//14 13//15
f 11//9 10//12 14//16 15//13
f 10//12 9//11 13//15 14//16
f 15//13 14//16 18//17 19//18
f 14//16 13//15 17//19 18//17
f 16//14 15//13 19//18 20//20
f 13//15 16//14 20//20 17//19
f 20//20 19//18 23//21 24//22
f 17//19 20//20 24//22 21//23
f 19//18 18//17 22//24 23//21
f 18//17 17//19 21//23 22//24
f 21//23 24//22 28//25 25//26
f 23//21 22//24 26//27 27//28
f 22//24 21//23 25//26 26//27
f 24//22 23//21 27//28 28//25
f 25//26 28//25 27//28 26//27
