# Blender v2.79 (sub 0) OBJ File: 'battleStage_01.blend'
# www.blender.org
mtllib soad.mtl
o Cube.001_Cube.002
v -0.071791 -0.045053 0.045053
v -0.071791 0.045053 0.045053
v -0.065785 -0.029264 -0.038350
v -0.065785 0.029264 -0.038350
v -0.296750 -0.009219 -0.009219
v -0.296750 -0.009219 0.009219
v -0.296750 0.009219 0.009219
v -0.296750 0.009219 -0.009219
v -0.034161 0.017741 -0.231953
v -0.034161 -0.017741 -0.231953
v -0.039697 0.023676 -0.402617
v -0.039697 -0.023676 -0.402617
v -0.048402 0.034060 -0.425293
v -0.048402 -0.034060 -0.425293
v -0.043133 0.026645 -0.452238
v -0.043133 -0.026645 -0.452238
v -0.102840 -0.001928 1.010338
v -0.102840 0.010010 1.010338
v -0.023283 0.000900 1.270980
v -0.023283 0.007182 1.270980
v -0.052113 -0.002456 0.068783
v -0.052115 0.012981 0.068959
v -0.046379 0.019310 -0.070421
v -0.046379 -0.019310 -0.070421
v 0.071791 -0.045053 0.045053
v 0.071791 0.045053 0.045053
v 0.065785 -0.029264 -0.038350
v 0.065785 0.029264 -0.038350
v 0.000000 -0.045053 0.045053
v 0.000000 0.045053 0.045053
v 0.000000 -0.026909 -0.044018
v 0.000000 0.026909 -0.044018
v 0.296750 -0.009219 -0.009219
v 0.296750 -0.009219 0.009219
v 0.296750 0.009219 0.009219
v 0.296750 0.009219 -0.009219
v 0.034161 0.017741 -0.231953
v 0.034161 -0.017741 -0.231953
v 0.000000 -0.015572 -0.232129
v 0.000000 0.015572 -0.232129
v 0.039697 0.023676 -0.402617
v 0.039697 -0.023676 -0.402617
v 0.000000 -0.023676 -0.402617
v 0.000000 0.023676 -0.402617
v 0.048402 0.034060 -0.425293
v 0.048402 -0.034060 -0.425293
v 0.000000 -0.034060 -0.425293
v 0.000000 0.034060 -0.425293
v 0.043133 0.026645 -0.452238
v 0.043133 -0.026645 -0.452238
v 0.000000 -0.026645 -0.452238
v 0.000000 0.026645 -0.452238
v 0.102840 -0.001928 1.010338
v 0.102840 0.010010 1.010338
v 0.000000 0.038178 1.010338
v 0.000000 -0.051707 1.010338
v 0.023283 0.000900 1.270980
v 0.023283 0.007182 1.270980
v 0.000000 0.007182 1.270980
v 0.000000 0.000900 1.270980
v 0.052113 -0.002456 0.068783
v 0.052115 0.012981 0.068959
v 0.000000 -0.013256 0.067714
v 0.000000 0.013617 0.067964
v 0.000000 -0.011209 -0.073146
v 0.000000 0.011209 -0.073146
v 0.046379 0.019310 -0.070421
v 0.046379 -0.019310 -0.070421
vn -0.1178 -0.9802 -0.1589
vn 0.1270 0.9918 0.0135
vn -1.0000 0.0000 0.0000
vn -0.9986 0.0002 -0.0538
vn 0.0089 -0.9812 -0.1927
vn 0.0089 0.9812 -0.1927
vn -0.1251 0.0000 -0.9921
vn -0.1573 0.0000 0.9876
vn -0.1178 0.9802 -0.1589
vn 0.0294 -0.9987 0.0406
vn -0.9972 0.0000 -0.0754
vn 0.1270 -0.9918 0.0135
vn -0.9336 0.0000 0.3584
vn 0.0294 0.9987 0.0406
vn -0.9995 0.0000 0.0324
vn 0.0000 0.9642 -0.2653
vn 0.0000 -0.9092 0.4164
vn 0.0000 0.9092 0.4164
vn 0.0000 0.0000 -1.0000
vn -0.9814 0.0000 -0.1919
vn 0.0000 -0.9642 -0.2653
vn -0.3628 -0.9192 0.1531
vn -0.3641 -0.9309 -0.0285
vn -0.1828 0.9830 -0.0162
vn 0.0000 0.0000 1.0000
vn -0.9564 0.0000 0.2919
vn -0.2170 0.9714 0.0961
vn 0.0034 0.5941 0.8044
vn -0.0381 -0.5215 0.8524
vn -0.7708 -0.0011 0.6371
vn 0.0587 -0.9272 -0.3700
vn -0.8556 0.0000 -0.5177
vn 0.0587 0.9272 -0.3700
vn 0.1178 -0.9802 -0.1589
vn -0.1270 0.9918 0.0135
vn 1.0000 0.0000 0.0000
vn 0.9986 0.0002 -0.0538
vn -0.0089 -0.9812 -0.1927
vn -0.0089 0.9812 -0.1927
vn 0.1251 0.0000 -0.9921
vn 0.1573 0.0000 0.9876
vn 0.1178 0.9802 -0.1589
vn -0.0294 -0.9987 0.0406
vn 0.9972 0.0000 -0.0754
vn -0.1270 -0.9918 0.0135
vn 0.9336 0.0000 0.3584
vn -0.0294 0.9987 0.0406
vn 0.9995 0.0000 0.0324
vn 0.9814 0.0000 -0.1919
vn 0.3628 -0.9192 0.1531
vn 0.3641 -0.9309 -0.0285
vn 0.1828 0.9830 -0.0162
vn 0.9564 0.0000 0.2919
vn 0.2170 0.9714 0.0961
vn -0.0034 0.5941 0.8044
vn 0.0381 -0.5215 0.8524
vn 0.7708 -0.0011 0.6371
vn -0.0587 -0.9272 -0.3700
vn 0.8556 0.0000 -0.5177
vn -0.0587 0.9272 -0.3700
usemtl soad
s off
f 3//1 1//1 6//1 5//1
f 23//2 66//2 40//2 9//2
f 6//3 7//3 8//3 5//3
f 22//4 21//4 17//4 18//4
f 3//5 31//5 29//5 1//5
f 32//6 4//6 2//6 30//6
f 4//7 3//7 5//7 8//7
f 1//8 2//8 7//8 6//8
f 2//9 4//9 8//9 7//9
f 39//10 10//10 12//10 43//10
f 24//11 23//11 9//11 10//11
f 65//12 24//12 10//12 39//12
f 12//13 11//13 13//13 14//13
f 9//14 40//14 44//14 11//14
f 10//15 9//15 11//15 12//15
f 13//16 48//16 52//16 15//16
f 43//17 12//17 14//17 47//17
f 11//18 44//18 48//18 13//18
f 16//19 15//19 52//19 51//19
f 14//20 13//20 15//20 16//20
f 47//21 14//21 16//21 51//21
f 17//22 56//22 60//22 19//22
f 21//23 63//23 56//23 17//23
f 64//24 22//24 18//24 55//24
f 60//25 59//25 20//25 19//25
f 18//26 17//26 19//26 20//26
f 55//27 18//27 20//27 59//27
f 30//28 2//28 22//28 64//28
f 1//29 29//29 63//29 21//29
f 2//30 1//30 21//30 22//30
f 31//31 3//31 24//31 65//31
f 3//32 4//32 23//32 24//32
f 4//33 32//33 66//33 23//33
f 27//34 33//34 34//34 25//34
f 67//35 37//35 40//35 66//35
f 34//36 33//36 36//36 35//36
f 62//37 54//37 53//37 61//37
f 27//38 25//38 29//38 31//38
f 32//39 30//39 26//39 28//39
f 28//40 36//40 33//40 27//40
f 25//41 34//41 35//41 26//41
f 26//42 35//42 36//42 28//42
f 39//43 43//43 42//43 38//43
f 68//44 38//44 37//44 67//44
f 65//45 39//45 38//45 68//45
f 42//46 46//46 45//46 41//46
f 37//47 41//47 44//47 40//47
f 38//48 42//48 41//48 37//48
f 45//16 49//16 52//16 48//16
f 43//17 47//17 46//17 42//17
f 41//18 45//18 48//18 44//18
f 50//19 51//19 52//19 49//19
f 46//49 50//49 49//49 45//49
f 47//21 51//21 50//21 46//21
f 53//50 57//50 60//50 56//50
f 61//51 53//51 56//51 63//51
f 64//52 55//52 54//52 62//52
f 60//25 57//25 58//25 59//25
f 54//53 58//53 57//53 53//53
f 55//54 59//54 58//54 54//54
f 30//55 64//55 62//55 26//55
f 25//56 61//56 63//56 29//56
f 26//57 62//57 61//57 25//57
f 31//58 65//58 68//58 27//58
f 27//59 68//59 67//59 28//59
f 28//60 67//60 66//60 32//60
