# Blender v2.79 (sub 0) OBJ File: 'stage.blend'
# www.blender.org
mtllib stage.mtl
o Plane
v -5.270569 0.736683 3.113253
v -2.635284 0.000000 3.113253
v -5.270569 0.000000 1.556626
v -2.635284 0.000000 1.556626
v 5.270569 0.736683 3.113253
v 0.000000 0.420955 3.113253
v 2.635284 0.000000 3.113253
v 5.270569 0.000000 1.556626
v 0.000000 0.000000 1.556626
v 2.635284 0.000000 1.556626
v -5.270569 0.736683 -3.113253
v -5.270569 0.000000 0.000000
v -2.635284 0.000000 -3.113253
v -2.635284 0.000000 0.000000
v -5.270569 0.000000 -1.556626
v -2.635284 0.000000 -1.556626
v 5.270569 0.736683 -3.113253
v 0.000000 0.420955 -3.113253
v 5.270569 0.000000 0.000000
v 0.000000 0.000000 0.000000
v 2.635284 0.000000 -3.113253
v 2.635284 0.000000 0.000000
v 5.270569 0.000000 -1.556626
v 0.000000 0.000000 -1.556626
v 2.635284 0.000000 -1.556626
vt 0.503890 0.259599
vt 0.995920 0.259598
vt 0.995921 0.494425
vt 0.503891 0.494426
vt 0.011860 0.259600
vt 0.011861 0.494427
vt 0.000070 0.000070
vt 0.503890 0.024771
vt 0.999930 0.016369
vt 0.503890 0.259599
vt 0.503891 0.494426
vt 0.011860 0.259600
vt 0.011861 0.494427
vt 0.000070 0.000070
vt 0.503890 0.024771
vt 0.503890 0.259599
vt 0.995920 0.259598
vt 0.011860 0.259600
vt 0.000070 0.000070
vt 0.503890 0.024771
vt 0.999930 0.016369
vt 0.503890 0.259599
vt 0.011860 0.259600
vt 0.000070 0.000070
vt 0.503890 0.024771
vn 0.0000 1.0000 0.0000
vn 0.1348 0.9642 -0.2282
vn -0.0789 0.9879 -0.1336
vn -0.1348 0.9642 -0.2282
vn 0.0789 0.9879 -0.1336
vn 0.1348 0.9642 0.2282
vn -0.0789 0.9879 0.1336
vn -0.1348 0.9642 0.2282
vn 0.0789 0.9879 0.1336
usemtl Material.001
s off
f 4/1/1 9/2/1 20/3/1 14/4/1
f 3/5/1 4/1/1 14/4/1 12/6/1
f 1/7/2 2/8/2 4/1/2 3/5/2
f 2/8/3 6/9/3 9/2/3 4/1/3
f 10/10/1 22/11/1 20/3/1 9/2/1
f 8/12/1 19/13/1 22/11/1 10/10/1
f 5/14/4 8/12/4 10/10/4 7/15/4
f 7/15/5 10/10/5 9/2/5 6/9/5
f 16/16/1 14/4/1 20/3/1 24/17/1
f 15/18/1 12/6/1 14/4/1 16/16/1
f 11/19/6 15/18/6 16/16/6 13/20/6
f 13/20/7 16/16/7 24/17/7 18/21/7
f 25/22/1 24/17/1 20/3/1 22/11/1
f 23/23/1 25/22/1 22/11/1 19/13/1
f 17/24/8 21/25/8 25/22/8 23/23/8
f 21/25/9 18/21/9 24/17/9 25/22/9
