# Blender v2.79 (sub 0) OBJ File: 'wood.blend'
# www.blender.org
mtllib wood.mtl
o Cube.001
v -1.950249 -0.544475 0.396315
v 0.233087 -0.544475 0.396315
v -1.950249 1.638858 0.400564
v 0.233087 1.638858 0.400564
v -1.395193 -1.287479 0.484131
v 0.166749 -1.287479 0.484131
v -1.395193 0.274460 0.487170
v 0.166749 0.274460 0.487170
v -0.732728 1.015309 0.068626
v 0.829214 1.015309 0.068626
v -0.732728 2.577248 0.071665
v 0.829214 2.577248 0.071665
vn 0.0000 -0.0019 1.0000
usemtl leaves
s off
f 1//1 2//1 4//1 3//1
f 5//1 6//1 8//1 7//1
f 9//1 10//1 12//1 11//1
o Cube
v 0.408466 -2.302829 -0.408466
v 0.408466 -2.302829 0.408466
v -0.408466 -2.302829 0.408466
v -0.408466 -2.302829 -0.408466
v 0.408467 0.408466 -0.408466
v 0.408466 0.408466 0.408467
v -0.408466 0.408466 0.408466
v -0.408466 0.408466 -0.408466
v 0.408466 -2.580990 -0.408466
v 0.408466 -2.580990 0.408466
v -0.408466 -2.580990 -0.408466
v -0.408466 -2.580990 0.408466
v 1.441639 -2.532105 -0.408466
v 1.441639 -2.532105 0.408466
v 1.441639 -2.580990 -0.408466
v 1.441639 -2.580990 0.408466
v 0.408466 -2.532105 -1.248713
v -0.408466 -2.532105 -1.248713
v 0.408466 -2.580990 -1.248713
v -0.408466 -2.580990 -1.248713
v 0.408466 -2.532105 1.255778
v -0.408466 -2.532105 1.255777
v 0.408466 -2.580990 1.255778
v -0.408466 -2.580990 1.255777
v -1.214671 -2.532105 0.408466
v -1.214670 -2.532105 -0.408466
v -1.214671 -2.580990 0.408466
v -1.214670 -2.580990 -0.408466
v 0.408466 -0.947181 -0.408466
v 0.408466 -0.947181 0.408466
v -0.408466 -0.947181 0.408466
v -0.408466 -0.947181 -0.408466
v 0.408466 -0.269358 -0.408466
v 0.408466 -0.269358 0.408467
v -0.408466 -0.269358 0.408466
v -0.408466 -0.269358 -0.408466
v 1.552548 -0.427430 -0.408466
v 1.552548 -0.427430 0.408466
v 1.552548 -0.269358 -0.408466
v 1.552548 -0.269358 0.408467
v 0.562176 -0.875830 -0.001704
v 2.313839 -0.875830 -0.001704
v 0.562176 0.875830 0.001704
v 2.313839 0.875830 0.001704
v -0.473620 -0.149884 0.254412
v 1.709716 -0.149884 0.254412
v -0.473620 2.033448 0.258661
v 1.709716 2.033448 0.258661
v -0.572922 -0.595064 0.541282
v 0.637529 -0.595064 0.541282
v -0.572922 0.615385 0.543637
v 0.637529 0.615385 0.543637
vn -0.0000 0.9653 0.2612
vn 0.0000 1.0000 -0.0000
vn 1.0000 0.0000 0.0000
vn -0.0000 -0.0000 1.0000
vn -1.0000 -0.0000 -0.0000
vn 0.0000 0.0000 -1.0000
vn 0.0000 -1.0000 0.0000
vn 0.0000 0.9647 -0.2632
vn 0.2166 0.9763 0.0000
vn -0.2735 0.9619 0.0000
vn 0.4136 -0.9105 0.0000
vn 0.0000 -0.0019 1.0000
usemtl wood
s off
f 14//2 15//2 34//2 33//2
f 17//3 20//3 19//3 18//3
f 45//4 17//4 18//4 46//4
f 46//5 18//5 19//5 47//5
f 47//6 19//6 20//6 48//6
f 41//7 13//7 16//7 44//7
f 21//8 22//8 24//8 23//8
f 16//9 13//9 29//9 30//9
f 22//8 21//8 27//8 28//8
f 16//7 23//7 40//7 38//7
f 25//4 26//4 28//4 27//4
f 14//5 22//5 28//5 26//5
f 13//10 14//10 26//10 25//10
f 21//7 13//7 25//7 27//7
f 30//7 29//7 31//7 32//7
f 23//6 16//6 30//6 32//6
f 21//8 23//8 32//8 31//8
f 13//4 21//4 31//4 29//4
f 33//5 34//5 36//5 35//5
f 24//8 22//8 35//8 36//8
f 22//4 14//4 33//4 35//4
f 15//6 24//6 36//6 34//6
f 37//6 38//6 40//6 39//6
f 23//8 24//8 39//8 40//8
f 15//11 16//11 38//11 37//11
f 24//5 15//5 37//5 39//5
f 45//7 41//7 44//7 48//7
f 15//6 43//6 44//6 16//6
f 14//5 42//5 43//5 15//5
f 13//4 41//4 42//4 14//4
f 17//7 45//7 48//7 20//7
f 43//6 47//6 48//6 44//6
f 42//5 46//5 47//5 43//5
f 45//3 46//3 52//3 51//3
f 49//4 51//4 52//4 50//4
f 46//5 42//5 50//5 52//5
f 42//12 41//12 49//12 50//12
f 41//7 45//7 51//7 49//7
usemtl leaves
f 53//13 54//13 56//13 55//13
usemtl leaves2
f 57//13 58//13 60//13 59//13
f 61//13 62//13 64//13 63//13
